<svg width="77" height="78" viewBox="0 0 77 78" fill="none" xmlns="http://www.w3.org/2000/svg">
<path d="M66.8616 15.2904C65.223 13.651 63.2773 12.3504 61.1359 11.4631C58.9945 10.5758 56.6992 10.1191 54.3812 10.1191C52.0632 10.1191 49.768 10.5758 47.6265 11.4631C45.4851 12.3504 43.5395 13.651 41.9008 15.2904L38.5 18.6912L35.0991 15.2904C31.7891 11.9804 27.2998 10.1209 22.6187 10.1209C17.9377 10.1209 13.4483 11.9804 10.1383 15.2904C6.8283 18.6004 4.96875 23.0898 4.96875 27.7708C4.96875 32.4519 6.8283 36.9412 10.1383 40.2512L38.5 68.6129L66.8616 40.2512C68.5011 38.6126 69.8016 36.6669 70.6889 34.5255C71.5762 32.3841 72.0329 30.0888 72.0329 27.7708C72.0329 25.4528 71.5762 23.1576 70.6889 21.0161C69.8016 18.8747 68.5011 16.9291 66.8616 15.2904Z" stroke="white" stroke-width="4" stroke-linecap="round" stroke-linejoin="round"/>
</svg>
