<svg width="1920" height="1080" viewBox="0 0 1920 1080" fill="none" xmlns="http://www.w3.org/2000/svg">
<path fill-rule="evenodd" clip-rule="evenodd" d="M1.49776 379.116C8.73402 491.966 105.677 791.65 435.997 1085.09L434.005 1087.33C103.201 793.463 5.79924 493.079 -1.49609 379.308L1.49776 379.116Z" fill="white"/>
<path fill-rule="evenodd" clip-rule="evenodd" d="M1131.96 1.61332C874.247 83.5636 433.937 338.925 1.21997 943.085L-1.21899 941.339C431.817 336.732 872.634 80.9284 1131.05 -1.24561L1131.96 1.61332Z" fill="white"/>
<path fill-rule="evenodd" clip-rule="evenodd" d="M718.504 1086.32C706.516 921.609 545.972 484.433 -0.924438 56.3927L0.924561 54.0303C548.303 482.448 709.432 920.339 721.496 1086.1L718.504 1086.32Z" fill="white"/>
<path fill-rule="evenodd" clip-rule="evenodd" d="M1253.28 -0.187988C1281.54 223.591 1398.37 658.552 1709.21 1085.33L1706.79 1087.09C1395.6 659.853 1278.62 224.396 1250.31 0.187829L1253.28 -0.187988Z" fill="white"/>
<path fill-rule="evenodd" clip-rule="evenodd" d="M1920.11 509.767C1769.96 520.755 1396.19 654.333 1006.85 1087.21L1004.62 1085.21C1394.32 651.917 1768.77 517.834 1919.89 506.775L1920.11 509.767Z" fill="white"/>
<path d="M46.1372 899.836C46.1372 907.785 39.6933 914.228 31.7444 914.228C23.7954 914.228 17.3516 907.785 17.3516 899.836C17.3516 891.887 23.7954 885.443 31.7444 885.443C39.6933 885.443 46.1372 891.887 46.1372 899.836Z" fill="white"/>
<path d="M725.397 1028.33C725.397 1036.28 718.953 1042.72 711.004 1042.72C703.055 1042.72 696.611 1036.28 696.611 1028.33C696.611 1020.38 703.055 1013.94 711.004 1013.94C718.953 1013.94 725.397 1020.38 725.397 1028.33Z" fill="white"/>
<path d="M1654.79 993.605C1654.79 1001.55 1648.34 1008 1640.39 1008C1632.44 1008 1626 1001.55 1626 993.605C1626 985.656 1632.44 979.212 1640.39 979.212C1648.34 979.212 1654.79 985.656 1654.79 993.605Z" fill="white"/>
<path d="M1741.57 380.931C1741.57 390.205 1734.05 397.723 1724.78 397.723C1715.5 397.723 1707.99 390.205 1707.99 380.931C1707.99 371.658 1715.5 364.14 1724.78 364.14C1734.05 364.14 1741.57 371.658 1741.57 380.931Z" fill="white"/>
<path d="M1289.59 128.302C1289.59 136.251 1283.15 142.695 1275.2 142.695C1267.25 142.695 1260.81 136.251 1260.81 128.302C1260.81 120.354 1267.25 113.91 1275.2 113.91C1283.15 113.91 1289.59 120.354 1289.59 128.302Z" fill="white"/>
<path d="M935.532 89.9221C935.532 97.871 929.088 104.315 921.139 104.315C913.19 104.315 906.746 97.871 906.746 89.9221C906.746 81.9732 913.19 75.5293 921.139 75.5293C929.088 75.5293 935.532 81.9732 935.532 89.9221Z" fill="white"/>
<path d="M172.714 186.354C172.714 195.627 165.196 203.145 155.922 203.145C146.649 203.145 139.131 195.627 139.131 186.354C139.131 177.08 146.649 169.562 155.922 169.562C165.196 169.562 172.714 177.08 172.714 186.354Z" fill="white"/>
<path fill-rule="evenodd" clip-rule="evenodd" d="M1517.14 -0.474678C1566.22 146.753 1681.48 362.135 1915.66 575.136L1913.64 577.356C1679.08 364.005 1563.54 148.184 1514.29 0.474143L1517.14 -0.474678Z" fill="white"/>
<path fill-rule="evenodd" clip-rule="evenodd" d="M601.664 -1.63149C648.669 191.116 893.165 671.98 1496.8 1085.15L1494.99 1087.42C890.848 673.9 645.919 192.499 598.744 -0.944938L601.664 -1.63149Z" fill="white"/>
<path d="M113.305 671.064C113.305 679.013 106.861 685.457 98.9123 685.457C90.9634 685.457 84.5195 679.013 84.5195 671.064C84.5195 663.115 90.9634 656.671 98.9123 656.671C106.861 656.671 113.305 663.115 113.305 671.064Z" fill="white"/>
<path d="M1116.27 762.867C1116.27 770.816 1109.83 777.26 1101.88 777.26C1093.93 777.26 1087.49 770.816 1087.49 762.867C1087.49 754.918 1093.93 748.475 1101.88 748.475C1109.83 748.475 1116.27 754.918 1116.27 762.867Z" fill="white"/>
</svg>
