<svg width="118" height="122" viewBox="0 0 118 122" fill="none" xmlns="http://www.w3.org/2000/svg">
<path d="M54 80.6712C63.45 78.2445 61.65 75.8178 71.1 56C72.9 69.3467 72.45 78.2445 81 80.6712C68.85 83.5023 71.1 91.5912 65.7996 105C63 90.7821 64.35 84.3112 54 80.6712Z" fill="#FAC748" stroke="#FAC748" stroke-width="5"/>
<path d="M23 45.755C37.7 42.1398 34.9 38.5245 49.6 9C52.4 28.8839 49.6 39 65 45.755C46.1 49.9728 49.6 62.0237 41.355 82C37 60.8183 39.1 51.1779 23 45.755Z" fill="#FAC748" stroke="#FAC748" stroke-width="5"/>
<ellipse cx="48.7277" cy="26.0199" rx="48.7277" ry="26.0199" transform="matrix(0.602339 -0.798241 0.800243 0.599676 17.022 90.793)" stroke="#FAC748" stroke-width="5"/>
<ellipse cx="48.8203" cy="25.9705" rx="48.8203" ry="25.9705" transform="matrix(0.953652 -0.300913 0.302815 0.953049 0 53.3813)" stroke="#FAC748" stroke-width="5"/>
</svg>
