<svg width="295" height="763" viewBox="0 0 295 763" fill="none" xmlns="http://www.w3.org/2000/svg">
<path d="M57.3642 510.834C66.7422 506.319 80.2307 516.045 84.283 521.255C83.704 529.215 81.7645 542.963 78.6385 534.28C74.731 523.426 67.3501 519.952 63.4425 522.123C59.535 524.293 63.6927 531.446 64.3109 537.319C65.1792 545.568 65.689 553.348 61.7059 563.803C58.2325 572.92 46.9557 594.229 43.0365 603.747C39.9973 611.128 43.0365 626.758 45.6416 642.388C47.3605 652.702 57.7983 667.57 58.2325 668.873C58.5798 669.915 64.4556 675.385 67.3501 677.99L120.753 724.446L125.962 728.788C128.567 731.827 129.956 733.564 129.436 736.169C129.07 738.003 127.699 740.51 126.396 741.813C121.042 747.891 112.893 757.803 112.069 758.746C109.03 762.219 104.688 763.956 101.65 760.482C100.11 758.723 99.9128 755.707 102.083 752.667C104.253 749.628 108.595 744.418 108.595 744.418L115.543 736.169L39.5632 668.873C30.1562 678.858 14.3804 695.792 9.60543 700.567C7.86875 702.304 4.457 703.119 2.22383 700.567C-0.815776 697.093 2.65724 692.752 3.52622 691.883C3.52622 691.883 4.60126 690.581 6.13207 688.844C15.8285 677.845 33.3111 659.755 34.3531 658.018C37.7398 652.374 33.8726 646.295 32.6165 634.573C31.3137 622.416 29.1429 608.088 31.7481 602.878C37.8889 590.598 48.2468 570.75 51.7202 559.027C54.4988 549.649 52.733 537.174 50.8516 529.504C49.4671 523.859 47.9861 515.35 57.3642 510.834Z" fill="#002445"/>
<path d="M84.283 521.255L84.7816 521.291L84.7956 521.099L84.6776 520.948L84.283 521.255ZM57.3642 510.834L57.5811 511.285L57.3642 510.834ZM50.8516 529.504L51.3372 529.385L50.8516 529.504ZM51.7202 559.027L52.1996 559.17L51.7202 559.027ZM31.7481 602.878L32.1953 603.102L31.7481 602.878ZM32.6165 634.573L33.1136 634.52L32.6165 634.573ZM34.3531 658.018L34.7819 658.275L34.3531 658.018ZM6.13207 688.844L5.75701 688.514H5.75701L6.13207 688.844ZM3.52622 691.883L3.87962 692.237L3.89658 692.22L3.91183 692.202L3.52622 691.883ZM2.22383 700.567L1.84756 700.896H1.84756L2.22383 700.567ZM9.60543 700.567L9.95899 700.921H9.95899L9.60543 700.567ZM39.5632 668.873L39.8947 668.498C39.6925 668.319 39.3845 668.333 39.1992 668.53L39.5632 668.873ZM115.543 736.169L115.925 736.491C116.1 736.284 116.078 735.975 115.874 735.795L115.543 736.169ZM108.595 744.418L108.213 744.096L108.211 744.098L108.595 744.418ZM102.083 752.667L101.676 752.377H101.676L102.083 752.667ZM101.65 760.482L102.026 760.153L101.65 760.482ZM112.069 758.746L111.692 758.416L112.069 758.746ZM126.396 741.813L126.043 741.459L126.032 741.471L126.021 741.482L126.396 741.813ZM129.436 736.169L129.927 736.267L129.436 736.169ZM125.962 728.788L126.342 728.462L126.314 728.431L126.282 728.404L125.962 728.788ZM120.753 724.446L120.425 724.824L120.433 724.83L120.753 724.446ZM67.3501 677.99L67.0155 678.362L67.0219 678.367L67.3501 677.99ZM58.2325 668.873L58.7068 668.714L58.2325 668.873ZM45.6416 642.388L45.1484 642.47L45.6416 642.388ZM43.0365 603.747L43.4989 603.937L43.0365 603.747ZM61.7059 563.803L62.1731 563.981L61.7059 563.803ZM64.3109 537.319L64.8081 537.267L64.3109 537.319ZM63.4425 522.123L63.1997 521.686L63.4425 522.123ZM78.6385 534.28L78.1681 534.449L78.6385 534.28ZM84.6776 520.948C82.5996 518.276 78.1524 514.497 73.0438 511.95C67.9502 509.41 62.0496 508.023 57.1473 510.384L57.5811 511.285C62.0568 509.13 67.5894 510.348 72.5976 512.845C77.5909 515.335 81.9141 519.024 83.8883 521.562L84.6776 520.948ZM57.1473 510.384C52.3134 512.711 50.238 516.102 49.5803 519.655C48.9301 523.167 49.673 526.798 50.366 529.623L51.3372 529.385C50.6457 526.565 49.9559 523.119 50.5636 519.837C51.1637 516.595 53.0368 513.473 57.5811 511.285L57.1473 510.384ZM50.366 529.623C52.2427 537.274 53.98 549.64 51.2408 558.885L52.1996 559.17C55.0176 549.658 53.2232 537.074 51.3372 529.385L50.366 529.623ZM51.2408 558.885C47.7837 570.553 37.457 590.344 31.3009 602.655L32.1953 603.102C38.3207 590.853 48.7099 570.947 52.1996 559.17L51.2408 558.885ZM31.3009 602.655C30.6039 604.049 30.2462 606.003 30.1025 608.288C29.9581 610.584 30.0273 613.268 30.2179 616.153C30.5987 621.92 31.4699 628.566 32.1193 634.626L33.1136 634.52C32.4603 628.423 31.5947 621.827 31.2157 616.088C31.0264 613.221 30.96 610.585 31.1005 608.35C31.2418 606.104 31.5898 604.313 32.1953 603.102L31.3009 602.655ZM32.1193 634.626C32.7499 640.511 34.0448 645.034 34.7346 648.668C35.4299 652.331 35.5187 655.104 33.9244 657.761L34.7819 658.275C36.5743 655.288 36.4228 652.199 35.7171 648.481C35.0059 644.735 33.7392 640.357 33.1136 634.52L32.1193 634.626ZM33.9244 657.761C33.8223 657.931 33.4705 658.366 32.8627 659.061C32.2699 659.739 31.4668 660.627 30.4991 661.683C28.564 663.793 25.9798 666.559 23.1227 669.617C17.4114 675.729 10.6111 683.008 5.75701 688.514L6.50714 689.175C11.3495 683.682 18.1387 676.416 23.8534 670.299C26.7092 667.243 29.2971 664.473 31.2361 662.359C32.2054 661.302 33.0148 660.406 33.6154 659.719C34.201 659.05 34.6234 658.539 34.7819 658.275L33.9244 657.761ZM5.75701 688.514C4.98906 689.385 4.33546 690.147 3.87372 690.692C3.64282 690.964 3.45983 691.182 3.33443 691.332C3.27172 691.407 3.22341 691.465 3.19071 691.505C3.17435 691.524 3.1619 691.539 3.1535 691.549C3.1493 691.555 3.14611 691.558 3.14395 691.561C3.14288 691.562 3.14206 691.563 3.1415 691.564C3.14122 691.564 3.141 691.565 3.14085 691.565C3.14078 691.565 3.14072 691.565 3.14068 691.565C3.14066 691.565 3.14064 691.565 3.14063 691.565C3.14061 691.565 3.1406 691.565 3.52622 691.883C3.91183 692.202 3.91183 692.202 3.91183 692.202C3.91184 692.202 3.91184 692.202 3.91186 692.202C3.91188 692.202 3.91192 692.202 3.91198 692.201C3.91209 692.201 3.91227 692.201 3.91251 692.201C3.91299 692.2 3.91374 692.199 3.91474 692.198C3.91675 692.196 3.91978 692.192 3.92383 692.187C3.93192 692.177 3.94406 692.163 3.96009 692.143C3.99216 692.105 4.0398 692.047 4.1018 691.973C4.2258 691.825 4.40725 691.609 4.63647 691.338C5.09495 690.798 5.74427 690.04 6.50714 689.175L5.75701 688.514ZM3.17281 691.53C2.70389 691.998 1.56893 693.36 0.939862 695.076C0.304889 696.808 0.166338 698.975 1.84756 700.896L2.60011 700.238C1.24172 698.685 1.31987 696.945 1.87875 695.42C2.44353 693.88 3.47957 692.637 3.87962 692.237L3.17281 691.53ZM1.84756 700.896C3.07726 702.302 4.6473 702.786 6.13848 702.674C7.61249 702.562 9.01013 701.869 9.95899 700.921L9.25188 700.213C8.46406 701.001 7.28749 701.584 6.06315 701.677C4.856 701.768 3.60358 701.384 2.60011 700.238L1.84756 700.896ZM9.95899 700.921C14.741 696.139 30.5277 679.193 39.9271 669.215L39.1992 668.53C29.7846 678.524 14.0198 695.445 9.25188 700.213L9.95899 700.921ZM39.2317 669.247L115.211 736.543L115.874 735.795L39.8947 668.498L39.2317 669.247ZM115.161 735.847L108.213 744.096L108.978 744.74L115.925 736.491L115.161 735.847ZM108.595 744.418C108.211 744.098 108.211 744.098 108.211 744.098C108.211 744.098 108.211 744.098 108.211 744.098C108.211 744.098 108.211 744.098 108.21 744.099C108.21 744.099 108.209 744.1 108.208 744.102C108.206 744.104 108.203 744.108 108.199 744.113C108.19 744.123 108.178 744.138 108.162 744.158C108.129 744.197 108.081 744.254 108.02 744.329C107.896 744.477 107.718 744.693 107.497 744.962C107.055 745.499 106.443 746.246 105.764 747.089C104.406 748.772 102.77 750.844 101.676 752.377L102.49 752.958C103.565 751.451 105.185 749.399 106.542 747.717C107.219 746.877 107.829 746.132 108.269 745.597C108.489 745.33 108.667 745.115 108.79 744.967C108.851 744.893 108.898 744.836 108.931 744.797C108.947 744.777 108.959 744.763 108.967 744.753C108.971 744.748 108.974 744.744 108.976 744.742C108.977 744.741 108.978 744.74 108.979 744.739C108.979 744.739 108.979 744.738 108.979 744.738C108.979 744.738 108.979 744.738 108.979 744.738C108.979 744.738 108.979 744.738 108.595 744.418ZM101.676 752.377C99.4079 755.553 99.5431 758.834 101.273 760.812L102.026 760.153C100.677 758.611 100.418 755.86 102.49 752.958L101.676 752.377ZM101.273 760.812C102.92 762.694 104.957 763.18 106.973 762.706C108.953 762.24 110.883 760.859 112.445 759.075L111.692 758.416C110.215 760.105 108.454 761.33 106.744 761.732C105.07 762.126 103.417 761.744 102.026 760.153L101.273 760.812ZM112.445 759.075C112.862 758.598 115.115 755.873 117.917 752.526C120.726 749.171 124.099 745.178 126.772 742.143L126.021 741.482C123.339 744.527 119.96 748.528 117.15 751.884C114.334 755.248 112.1 757.95 111.692 758.416L112.445 759.075ZM126.75 742.166C127.445 741.471 128.141 740.475 128.707 739.428C129.274 738.382 129.731 737.248 129.927 736.267L128.946 736.071C128.776 736.924 128.364 737.961 127.828 738.952C127.291 739.944 126.65 740.852 126.043 741.459L126.75 742.166ZM129.927 736.267C130.212 734.836 129.967 733.634 129.312 732.406C128.674 731.208 127.635 729.971 126.342 728.462L125.583 729.113C126.894 730.644 127.853 731.795 128.43 732.876C128.991 733.928 129.181 734.896 128.946 736.071L129.927 736.267ZM126.282 728.404L121.073 724.062L120.433 724.83L125.642 729.172L126.282 728.404ZM121.081 724.069L67.6782 677.613L67.0219 678.367L120.425 724.824L121.081 724.069ZM67.6846 677.618C66.2403 676.319 64.0529 674.304 62.1848 672.487C61.2502 671.577 60.4002 670.722 59.7644 670.032C59.446 669.686 59.1866 669.388 58.9987 669.148C58.9047 669.028 58.8326 668.928 58.7812 668.848C58.7557 668.808 58.7371 668.776 58.7243 668.752C58.7109 668.726 58.7068 668.714 58.7068 668.714L57.7582 669.031C57.8325 669.254 58.0161 669.516 58.2119 669.765C58.423 670.034 58.7023 670.355 59.0289 670.709C59.6829 671.419 60.5479 672.289 61.4874 673.204C63.3677 675.033 65.5653 677.057 67.0156 678.362L67.6846 677.618ZM58.7068 668.714C58.6633 668.584 58.5752 668.412 58.4765 668.233C58.3713 668.042 58.2324 667.804 58.0662 667.527C57.7341 666.972 57.2815 666.24 56.7499 665.374C55.6844 663.637 54.2897 661.341 52.8557 658.766C49.9782 653.599 46.9787 647.37 46.1348 642.306L45.1484 642.47C46.0233 647.72 49.1023 654.082 51.982 659.253C53.4266 661.847 54.8302 664.157 55.8975 665.897C56.4324 666.769 56.8799 667.492 57.2084 668.041C57.3726 668.315 57.5041 668.54 57.6004 668.715C57.7031 668.901 57.7474 668.998 57.7582 669.031L58.7068 668.714ZM46.1348 642.306C44.8303 634.479 43.4232 626.686 42.7198 619.922C42.0137 613.133 42.0328 607.498 43.4989 603.937L42.5742 603.557C41.0011 607.377 41.0202 613.247 41.7252 620.026C42.4328 626.829 43.8478 634.667 45.1484 642.47L46.1348 642.306ZM43.4989 603.937C45.4506 599.198 49.2397 591.511 52.9875 583.845C56.7263 576.197 60.4264 568.566 62.1731 563.981L61.2386 563.625C59.512 568.157 55.837 575.739 52.0892 583.405C48.3505 591.053 44.5416 598.779 42.5742 603.557L43.4989 603.937ZM62.1731 563.981C66.1985 553.415 65.6791 545.54 64.8081 537.267L63.8136 537.371C64.6794 545.596 65.1795 553.28 61.2386 563.625L62.1731 563.981ZM64.8081 537.267C64.6491 535.756 64.2642 534.176 63.8474 532.641C63.4265 531.092 62.9783 529.606 62.6674 528.223C62.356 526.839 62.201 525.631 62.3379 524.657C62.4708 523.711 62.8726 523.011 63.6853 522.56L63.1997 521.686C62.0588 522.32 61.5149 523.328 61.3477 524.517C61.1845 525.678 61.3748 527.033 61.6917 528.442C62.009 529.853 62.4719 531.392 62.8824 532.903C63.2969 534.429 63.6635 535.945 63.8136 537.371L64.8081 537.267ZM63.6853 522.56C65.4122 521.601 68.024 521.837 70.7559 523.728C73.474 525.61 76.2411 529.097 78.1681 534.449L79.1089 534.11C77.1283 528.609 74.2512 524.932 71.3251 522.906C68.4128 520.89 65.3804 520.474 63.1997 521.686L63.6853 522.56ZM78.1681 534.449C78.5644 535.55 78.959 536.348 79.3651 536.853C79.7673 537.353 80.2952 537.691 80.9036 537.506C81.4256 537.346 81.8032 536.843 82.0873 536.307C82.3876 535.741 82.6558 534.996 82.8969 534.145C83.8598 530.745 84.4919 525.275 84.7816 521.291L83.7843 521.219C83.4951 525.195 82.8679 530.578 81.9348 533.872C81.7019 534.694 81.4563 535.363 81.2038 535.839C80.935 536.346 80.7205 536.516 80.612 536.549C80.59 536.556 80.4489 536.605 80.1445 536.226C79.8439 535.852 79.4941 535.18 79.1089 534.11L78.1681 534.449Z" fill="#002445"/>
<rect x="190.879" y="517.497" width="47.602" height="33.5477" rx="16.7738" transform="rotate(-11.2693 190.879 517.497)" stroke="#002445" stroke-width="12"/>
<rect x="197.906" y="552.684" width="40.1363" height="28.2813" rx="14.1407" transform="rotate(-19.159 197.906 552.684)" stroke="#002445" stroke-width="12"/>
<rect x="197.969" y="581.521" width="40.9422" height="29.3286" rx="14.6643" transform="rotate(-19.1612 197.969 581.521)" stroke="#002445" stroke-width="12"/>
<rect x="198.912" y="608.328" width="40.522" height="25.0393" rx="12.5197" transform="rotate(-12.7224 198.912 608.328)" stroke="#002445" stroke-width="12"/>
<path d="M87.7551 725.748C90.3601 722.709 50.127 689.278 30.4446 673.214L24.3662 680.161C44.9169 696.225 85.15 728.788 87.7551 725.748Z" fill="#002445" stroke="#002445"/>
<path d="M37.826 707.948C39.3751 705.779 27.1609 695.233 16.1175 686.239L12.21 690.997C23.7406 699.991 35.6552 710.987 37.826 707.948Z" fill="#002445" stroke="#002445"/>
<path d="M105.556 641.953C102.517 622.85 87.755 609.825 72.9932 597.668C79.9399 606.351 94.8753 627.799 99.0434 644.124C103.211 660.449 100.78 670.609 99.0434 673.648C101.648 669.306 108.701 661.725 105.556 641.953Z" fill="#002445" stroke="#002445"/>
<path fill-rule="evenodd" clip-rule="evenodd" d="M101.466 399.687C87.6593 399.687 76.4664 410.879 76.4664 424.687V577.359L69.3193 588.408C81.0114 587.699 96.8029 600.445 107.304 620.118C112.701 630.23 115.8 640.485 116.574 649.33L116.488 649.334C116.462 649.635 116.437 649.941 116.415 650.252C120.887 648.29 126.108 647.164 131.685 647.164C148.23 647.164 166.853 658.018 165.116 670.609C162.96 686.239 151.657 694.054 132.987 692.751C126.472 692.751 120.241 691.012 115.08 688.157C111.294 686.604 104.307 684.443 101.726 684.068C102.515 685.079 103.653 686.024 104.959 687.11C108.426 689.992 113.083 693.862 115.568 702.572C116.622 706.267 114.77 711.546 113.311 715.702C112.848 717.022 112.424 718.229 112.146 719.236L120.396 726.182L132.552 712.289C138.326 712.289 145.577 711.401 153.612 707.39C168.573 699.923 191.925 683.746 201.617 648.246C211.182 644.737 218.006 635.549 218.006 624.769V624.018L216.357 624.466C212.542 625.501 208.61 623.248 207.574 619.433C206.539 615.618 208.792 611.685 212.607 610.65L218.006 609.184V599.799C213.907 600.138 209.939 597.689 208.527 593.624C206.853 588.807 209.401 583.544 214.218 581.87L218.006 580.554V569.897C213.731 570.388 209.536 567.876 208.065 563.642C206.362 558.74 208.955 553.385 213.858 551.682L218.006 550.24V424.687C218.006 410.879 206.813 399.687 193.006 399.687H101.466Z" fill="#002445"/>
<path d="M76.4664 577.359L76.8863 577.631L76.9664 577.507V577.359H76.4664ZM69.3193 588.408L68.8995 588.137L68.3623 588.967L69.3496 588.908L69.3193 588.408ZM107.304 620.118L107.745 619.883L107.304 620.118ZM116.574 649.33L116.599 649.829L117.117 649.803L117.072 649.286L116.574 649.33ZM116.488 649.334L116.463 648.835L116.028 648.857L115.99 649.291L116.488 649.334ZM116.415 650.252L115.917 650.216L115.858 651.042L116.616 650.71L116.415 650.252ZM165.116 670.609L164.621 670.54L165.116 670.609ZM132.987 692.751L133.022 692.253L133.005 692.251H132.987V692.751ZM115.08 688.157L115.322 687.719L115.296 687.705L115.269 687.694L115.08 688.157ZM101.726 684.068L101.798 683.573L100.566 683.394L101.332 684.376L101.726 684.068ZM104.959 687.11L104.639 687.495H104.639L104.959 687.11ZM115.568 702.572L115.087 702.709L115.568 702.572ZM113.311 715.702L112.839 715.536L113.311 715.702ZM112.146 719.236L111.664 719.103L111.579 719.412L111.824 719.618L112.146 719.236ZM120.396 726.182L120.073 726.565L120.449 726.881L120.772 726.512L120.396 726.182ZM132.552 712.289V711.789H132.325L132.176 711.96L132.552 712.289ZM153.612 707.39L153.389 706.943H153.389L153.612 707.39ZM201.617 648.246L201.445 647.776L201.203 647.865L201.135 648.114L201.617 648.246ZM218.006 624.018H218.506V623.365L217.875 623.536L218.006 624.018ZM216.357 624.466L216.488 624.948L216.357 624.466ZM212.607 610.65L212.476 610.167L212.607 610.65ZM218.006 609.184L218.137 609.667L218.506 609.567V609.184H218.006ZM218.006 599.799H218.506V599.255L217.965 599.3L218.006 599.799ZM208.527 593.624L208.054 593.788L208.527 593.624ZM214.218 581.87L214.054 581.398L214.218 581.87ZM218.006 580.554L218.17 581.026L218.506 580.91V580.554H218.006ZM218.006 569.897H218.506V569.336L217.949 569.4L218.006 569.897ZM208.065 563.642L207.593 563.807L208.065 563.642ZM213.858 551.682L213.694 551.209L213.858 551.682ZM218.006 550.24L218.17 550.713L218.506 550.596V550.24H218.006ZM76.9664 424.687C76.9664 411.156 87.9355 400.187 101.466 400.187V399.187C87.3832 399.187 75.9664 410.603 75.9664 424.687H76.9664ZM76.9664 577.359V424.687H75.9664V577.359H76.9664ZM69.7392 588.68L76.8863 577.631L76.0466 577.088L68.8995 588.137L69.7392 588.68ZM107.745 619.883C102.468 609.997 95.8558 601.839 89.0768 596.234C82.3111 590.641 75.3174 587.544 69.289 587.909L69.3496 588.908C75.0133 588.564 81.7613 591.484 88.4396 597.005C95.1045 602.515 101.638 610.566 106.863 620.354L107.745 619.883ZM117.072 649.286C116.292 640.365 113.169 630.045 107.745 619.883L106.863 620.354C112.233 630.416 115.309 640.606 116.076 649.374L117.072 649.286ZM116.513 649.834L116.599 649.829L116.549 648.831L116.463 648.835L116.513 649.834ZM116.914 650.287C116.936 649.979 116.96 649.676 116.986 649.378L115.99 649.291C115.963 649.595 115.939 649.903 115.917 650.216L116.914 650.287ZM116.616 650.71C121.022 648.777 126.174 647.664 131.685 647.664V646.664C126.041 646.664 120.752 647.803 116.214 649.794L116.616 650.71ZM131.685 647.664C139.86 647.664 148.556 650.348 154.981 654.582C161.427 658.829 165.45 664.531 164.621 670.54L165.611 670.677C166.519 664.095 162.099 658.075 155.531 653.747C148.943 649.406 140.056 646.664 131.685 646.664V647.664ZM164.621 670.54C163.558 678.243 160.254 683.967 154.96 687.618C149.655 691.278 142.287 692.899 133.022 692.253L132.953 693.25C142.357 693.906 149.976 692.271 155.528 688.441C161.093 684.603 164.518 678.605 165.611 670.677L164.621 670.54ZM132.987 692.251C126.559 692.251 120.411 690.535 115.322 687.719L114.838 688.594C120.07 691.489 126.385 693.251 132.987 693.251V692.251ZM101.654 684.563C102.902 684.744 105.261 685.367 107.804 686.149C110.339 686.927 113.016 687.851 114.89 688.619L115.269 687.694C113.358 686.91 110.649 685.976 108.098 685.193C105.557 684.412 103.131 683.767 101.798 683.573L101.654 684.563ZM105.279 686.726C103.959 685.629 102.869 684.72 102.12 683.76L101.332 684.376C102.161 685.438 103.346 686.42 104.639 687.495L105.279 686.726ZM116.049 702.434C113.521 693.576 108.767 689.625 105.279 686.726L104.639 687.495C108.085 690.358 112.644 694.148 115.087 702.709L116.049 702.434ZM113.783 715.867C114.51 713.794 115.349 711.408 115.87 709.073C116.389 706.747 116.611 704.404 116.049 702.434L115.087 702.709C115.58 704.434 115.402 706.578 114.894 708.855C114.388 711.122 113.57 713.453 112.839 715.536L113.783 715.867ZM112.628 719.369C112.901 718.382 113.318 717.193 113.783 715.867L112.839 715.536C112.378 716.851 111.948 718.076 111.664 719.103L112.628 719.369ZM120.718 725.8L112.468 718.853L111.824 719.618L120.073 726.565L120.718 725.8ZM132.176 711.96L120.019 725.853L120.772 726.512L132.929 712.618L132.176 711.96ZM153.389 706.943C145.441 710.91 138.27 711.789 132.552 711.789V712.789C138.382 712.789 145.714 711.891 153.835 707.837L153.389 706.943ZM201.135 648.114C191.493 683.431 168.273 699.514 153.389 706.943L153.835 707.837C168.873 700.331 192.357 684.061 202.1 648.378L201.135 648.114ZM217.506 624.769C217.506 635.333 210.819 644.337 201.445 647.776L201.79 648.715C211.545 645.136 218.506 635.766 218.506 624.769H217.506ZM217.506 624.018V624.769H218.506V624.018H217.506ZM216.488 624.948L218.137 624.501L217.875 623.536L216.226 623.983L216.488 624.948ZM207.092 619.564C208.2 623.646 212.407 626.056 216.488 624.948L216.226 623.983C212.678 624.947 209.02 622.851 208.057 619.302L207.092 619.564ZM212.476 610.167C208.394 611.275 205.984 615.482 207.092 619.564L208.057 619.302C207.093 615.753 209.189 612.095 212.738 611.132L212.476 610.167ZM217.875 608.702L212.476 610.167L212.738 611.132L218.137 609.667L217.875 608.702ZM217.506 599.799V609.184H218.506V599.799H217.506ZM208.054 593.788C209.543 598.074 213.726 600.655 218.047 600.297L217.965 599.3C214.087 599.622 210.335 597.304 208.999 593.46L208.054 593.788ZM214.054 581.398C208.976 583.162 206.29 588.71 208.054 593.788L208.999 593.46C207.415 588.903 209.826 583.926 214.382 582.342L214.054 581.398ZM217.842 580.082L214.054 581.398L214.382 582.342L218.17 581.026L217.842 580.082ZM217.506 569.897V580.554H218.506V569.897H217.506ZM207.593 563.807C209.142 568.266 213.561 570.911 218.063 570.394L217.949 569.4C213.902 569.865 209.93 567.487 208.538 563.478L207.593 563.807ZM213.694 551.209C208.53 553.003 205.799 558.643 207.593 563.807L208.538 563.478C206.925 558.837 209.38 553.767 214.022 552.154L213.694 551.209ZM217.842 549.768L213.694 551.209L214.022 552.154L218.17 550.713L217.842 549.768ZM217.506 424.687V550.24H218.506V424.687H217.506ZM193.006 400.187C206.537 400.187 217.506 411.156 217.506 424.687H218.506C218.506 410.603 207.089 399.187 193.006 399.187V400.187ZM101.466 400.187H193.006V399.187H101.466V400.187Z" fill="#002445"/>
<path d="M237.246 252.542C227.868 257.057 214.38 247.331 210.327 242.121C210.906 234.161 212.846 220.413 215.972 229.096C219.879 239.95 227.26 243.424 231.168 241.253C235.075 239.082 230.918 231.93 230.299 226.057C229.431 217.808 228.921 210.028 232.904 199.573C236.378 190.456 247.655 169.147 251.574 159.629C254.613 152.248 251.574 136.618 248.969 120.988C247.25 110.674 236.812 95.8059 236.378 94.5034C236.031 93.4614 230.155 87.9909 227.26 85.3858L173.857 38.9296L168.648 34.5882C166.043 31.549 164.654 29.8123 165.174 27.2071C165.54 25.3728 166.911 22.8656 168.214 21.5631C173.569 15.4847 181.717 5.57291 182.542 4.63043C185.581 1.15706 189.923 -0.57962 192.961 2.89354C194.5 4.65329 194.698 7.6694 192.528 10.7088C190.358 13.7482 186.015 18.958 186.015 18.958L179.067 27.2071L255.047 94.5034C264.454 84.5175 280.23 67.584 285.005 62.809C286.742 61.0723 290.153 60.257 292.387 62.809C295.426 66.2826 291.953 70.6244 291.084 71.4926C291.084 71.4926 290.009 72.7952 288.478 74.5316C278.782 85.5306 261.299 103.621 260.257 105.358C256.871 111.002 260.738 117.081 261.994 128.803C263.297 140.96 265.467 155.288 262.862 160.498C256.721 172.778 246.364 192.626 242.89 204.349C240.112 213.727 241.877 226.202 243.759 233.872C245.143 239.517 246.624 248.026 237.246 252.542Z" fill="#002445"/>
<path d="M210.327 242.121L209.829 242.085L209.815 242.277L209.933 242.428L210.327 242.121ZM237.246 252.542L237.029 252.091L237.246 252.542ZM243.759 233.872L243.273 233.991L243.759 233.872ZM242.89 204.349L242.411 204.206L242.89 204.349ZM262.862 160.498L262.415 160.274L262.862 160.498ZM261.994 128.803L261.497 128.856L261.994 128.803ZM260.257 105.358L259.828 105.101L260.257 105.358ZM288.478 74.5316L288.853 74.8622H288.853L288.478 74.5316ZM291.084 71.4926L290.731 71.1389L290.714 71.1559L290.699 71.1744L291.084 71.4926ZM292.387 62.809L292.763 62.4797H292.763L292.387 62.809ZM285.005 62.809L284.651 62.4555H284.651L285.005 62.809ZM255.047 94.5034L254.716 94.8777C254.918 95.0569 255.226 95.0429 255.411 94.8463L255.047 94.5034ZM179.067 27.2071L178.685 26.885C178.51 27.0925 178.533 27.4015 178.736 27.5814L179.067 27.2071ZM186.015 18.958L186.397 19.2801L186.399 19.2782L186.015 18.958ZM192.528 10.7088L192.934 10.9993H192.934L192.528 10.7088ZM192.961 2.89354L192.585 3.22275L192.961 2.89354ZM182.542 4.63043L182.918 4.95969L182.542 4.63043ZM168.214 21.5631L168.568 21.9166L168.579 21.9054L168.589 21.8936L168.214 21.5631ZM165.174 27.2071L164.684 27.1092L165.174 27.2071ZM168.648 34.5882L168.269 34.9136L168.296 34.9454L168.328 34.9723L168.648 34.5882ZM173.857 38.9296L174.186 38.5523L174.177 38.5455L173.857 38.9296ZM227.26 85.3858L227.595 85.0141L227.588 85.0086L227.26 85.3858ZM236.378 94.5034L235.904 94.6615L236.378 94.5034ZM248.969 120.988L249.462 120.906L248.969 120.988ZM251.574 159.629L251.111 159.439L251.574 159.629ZM232.904 199.573L232.437 199.395L232.904 199.573ZM230.299 226.057L229.802 226.109L230.299 226.057ZM231.168 241.253L231.411 241.69L231.168 241.253ZM215.972 229.096L216.442 228.927L215.972 229.096ZM209.933 242.428C212.011 245.1 216.458 248.879 221.567 251.426C226.66 253.965 232.561 255.353 237.463 252.992L237.029 252.091C232.554 254.246 227.021 253.028 222.013 250.531C217.019 248.041 212.696 244.352 210.722 241.814L209.933 242.428ZM237.463 252.992C242.297 250.665 244.372 247.274 245.03 243.721C245.68 240.209 244.937 236.578 244.244 233.753L243.273 233.991C243.965 236.811 244.654 240.257 244.047 243.539C243.447 246.781 241.574 249.903 237.029 252.091L237.463 252.992ZM244.244 233.753C242.368 226.102 240.63 213.736 243.37 204.491L242.411 204.206C239.593 213.718 241.387 226.302 243.273 233.991L244.244 233.753ZM243.37 204.491C246.827 192.823 257.153 173.032 263.309 160.721L262.415 160.274C256.29 172.523 245.9 192.429 242.411 204.206L243.37 204.491ZM263.309 160.721C264.006 159.327 264.364 157.373 264.508 155.088C264.652 152.792 264.583 150.108 264.392 147.223C264.012 141.456 263.14 134.81 262.491 128.75L261.497 128.856C262.15 134.953 263.016 141.549 263.395 147.288C263.584 150.155 263.65 152.791 263.51 155.026C263.369 157.272 263.021 159.063 262.415 160.274L263.309 160.721ZM262.491 128.75C261.86 122.865 260.566 118.342 259.876 114.708C259.18 111.045 259.092 108.272 260.686 105.615L259.828 105.101C258.036 108.088 258.188 111.177 258.893 114.895C259.604 118.641 260.871 123.019 261.497 128.856L262.491 128.75ZM260.686 105.615C260.788 105.445 261.14 105.01 261.748 104.315C262.34 103.637 263.144 102.749 264.111 101.693C266.046 99.5834 268.631 96.8174 271.488 93.7595C277.199 87.6467 283.999 80.3683 288.853 74.8622L288.103 74.201C283.261 79.6938 276.472 86.9603 270.757 93.0768C267.901 96.1334 265.313 98.9032 263.374 101.017C262.405 102.074 261.596 102.97 260.995 103.657C260.409 104.326 259.987 104.837 259.828 105.101L260.686 105.615ZM288.853 74.8622C289.621 73.9911 290.275 73.2289 290.737 72.6843C290.968 72.412 291.151 72.194 291.276 72.0439C291.339 71.9689 291.387 71.9108 291.42 71.8714C291.436 71.8517 291.448 71.8367 291.457 71.8265C291.461 71.8214 291.464 71.8176 291.466 71.815C291.467 71.8137 291.468 71.8127 291.469 71.812C291.469 71.8117 291.469 71.8114 291.469 71.8112C291.47 71.8111 291.47 71.8111 291.47 71.811C291.47 71.811 291.47 71.811 291.47 71.811C291.47 71.8109 291.47 71.8109 291.084 71.4926C290.699 71.1744 290.699 71.1744 290.699 71.1744C290.699 71.1744 290.699 71.1744 290.698 71.1744C290.698 71.1744 290.698 71.1745 290.698 71.1745C290.698 71.1747 290.698 71.1749 290.698 71.1752C290.697 71.1758 290.697 71.1767 290.696 71.1779C290.694 71.1803 290.691 71.184 290.687 71.1889C290.678 71.1987 290.666 71.2133 290.65 71.2326C290.618 71.2712 290.571 71.3285 290.509 71.4027C290.385 71.5511 290.203 71.7673 289.974 72.0376C289.515 72.5784 288.866 73.3356 288.103 74.201L288.853 74.8622ZM291.438 71.8463C291.906 71.3778 293.041 70.0158 293.67 68.2999C294.305 66.568 294.444 64.401 292.763 62.4797L292.01 63.1383C293.369 64.6906 293.29 66.4313 292.732 67.9557C292.167 69.4962 291.131 70.7392 290.731 71.1389L291.438 71.8463ZM292.763 62.4797C291.533 61.0745 289.963 60.5895 288.472 60.7022C286.998 60.8135 285.6 61.5066 284.651 62.4555L285.358 63.1626C286.146 62.3747 287.323 61.7918 288.547 61.6993C289.754 61.6081 291.007 61.9915 292.01 63.1383L292.763 62.4797ZM284.651 62.4555C279.869 67.2375 264.083 84.1827 254.683 94.1606L255.411 94.8463C264.826 84.8523 280.591 67.9305 285.358 63.1626L284.651 62.4555ZM255.379 94.1291L179.399 26.8328L178.736 27.5814L254.716 94.8777L255.379 94.1291ZM179.45 27.5292L186.397 19.2801L185.633 18.6359L178.685 26.885L179.45 27.5292ZM186.015 18.958C186.399 19.2782 186.399 19.2782 186.399 19.2781C186.399 19.2781 186.399 19.278 186.399 19.2779C186.399 19.2777 186.4 19.2775 186.4 19.2772C186.4 19.2765 186.401 19.2755 186.402 19.2743C186.404 19.2717 186.408 19.2679 186.412 19.2629C186.42 19.2529 186.433 19.2379 186.449 19.2184C186.481 19.1793 186.529 19.1217 186.591 19.0473C186.714 18.8985 186.893 18.6827 187.114 18.4142C187.555 17.8774 188.167 17.1299 188.847 16.2871C190.204 14.6043 191.84 12.5321 192.934 10.9993L192.121 10.4183C191.045 11.925 189.425 13.9773 188.068 15.6593C187.391 16.4989 186.782 17.2438 186.341 17.7788C186.121 18.0463 185.944 18.2612 185.821 18.4092C185.76 18.4832 185.712 18.5405 185.68 18.5792C185.664 18.5985 185.651 18.6133 185.643 18.6231C185.639 18.6281 185.636 18.6318 185.634 18.6342C185.633 18.6355 185.632 18.6364 185.632 18.637C185.631 18.6373 185.631 18.6375 185.631 18.6377C185.631 18.6378 185.631 18.6378 185.631 18.6378C185.631 18.6379 185.631 18.6379 186.015 18.958ZM192.934 10.9993C195.202 7.82263 195.067 4.54201 193.337 2.56433L192.585 3.22275C193.933 4.76457 194.193 7.51617 192.121 10.4183L192.934 10.9993ZM193.337 2.56433C191.69 0.681503 189.653 0.195892 187.637 0.670334C185.657 1.13629 183.727 2.51654 182.165 4.30118L182.918 4.95969C184.396 3.27095 186.156 2.04617 187.866 1.64374C189.54 1.24979 191.193 1.63242 192.585 3.22275L193.337 2.56433ZM182.165 4.30118C181.748 4.77773 179.496 7.50255 176.693 10.8498C173.884 14.2051 170.512 18.1985 167.839 21.2325L168.589 21.8936C171.271 18.8493 174.65 14.8476 177.46 11.4918C180.276 8.12791 182.51 5.42561 182.918 4.95969L182.165 4.30118ZM167.86 21.2095C167.165 21.905 166.47 22.901 165.903 23.9477C165.337 24.994 164.88 26.1276 164.684 27.1092L165.664 27.3049C165.834 26.4523 166.246 25.4151 166.783 24.4236C167.319 23.4325 167.961 22.5236 168.568 21.9166L167.86 21.2095ZM164.684 27.1092C164.398 28.5397 164.643 29.7423 165.298 30.9702C165.937 32.1678 166.975 33.4048 168.269 34.9136L169.028 34.2628C167.716 32.7324 166.757 31.5815 166.18 30.4996C165.619 29.448 165.43 28.4796 165.664 27.3049L164.684 27.1092ZM168.328 34.9723L173.537 39.3137L174.177 38.5455L168.968 34.2041L168.328 34.9723ZM173.529 39.3069L226.932 85.7631L227.588 85.0086L174.186 38.5524L173.529 39.3069ZM226.926 85.7575C228.37 87.0573 230.557 89.0716 232.426 90.8891C233.36 91.7985 234.21 92.6541 234.846 93.3443C235.164 93.6899 235.424 93.9884 235.612 94.2279C235.706 94.3478 235.778 94.4478 235.829 94.5279C235.855 94.5677 235.873 94.5997 235.886 94.6243C235.899 94.6499 235.904 94.6616 235.904 94.6615L236.852 94.3453C236.778 94.1223 236.594 93.8604 236.398 93.6107C236.187 93.3415 235.908 93.0213 235.581 92.6668C234.927 91.9568 234.062 91.0865 233.123 90.1724C231.243 88.343 229.045 86.3194 227.595 85.0142L226.926 85.7575ZM235.904 94.6615C235.947 94.7921 236.035 94.9639 236.134 95.1433C236.239 95.3344 236.378 95.5721 236.544 95.8493C236.876 96.4037 237.329 97.1358 237.86 98.0022C238.926 99.7389 240.321 102.035 241.755 104.61C244.632 109.777 247.632 116.006 248.476 121.07L249.462 120.906C248.587 115.656 245.508 109.294 242.628 104.123C241.184 101.529 239.78 99.2189 238.713 97.4792C238.178 96.6074 237.73 95.8837 237.402 95.3354C237.238 95.0613 237.106 94.836 237.01 94.6611C236.907 94.4746 236.863 94.3776 236.852 94.3453L235.904 94.6615ZM248.476 121.07C249.78 128.897 251.187 136.69 251.891 143.454C252.597 150.243 252.578 155.878 251.111 159.439L252.036 159.819C253.609 155.999 253.59 150.129 252.885 143.35C252.178 136.546 250.763 128.709 249.462 120.906L248.476 121.07ZM251.111 159.439C249.16 164.178 245.371 171.865 241.623 179.531C237.884 187.179 234.184 194.81 232.437 199.395L233.372 199.751C235.098 195.219 238.773 187.636 242.521 179.971C246.26 172.323 250.069 164.597 252.036 159.819L251.111 159.439ZM232.437 199.395C228.412 209.961 228.931 217.836 229.802 226.109L230.797 226.005C229.931 217.78 229.431 210.095 233.372 199.751L232.437 199.395ZM229.802 226.109C229.961 227.62 230.346 229.2 230.763 230.735C231.184 232.284 231.632 233.77 231.943 235.153C232.254 236.537 232.409 237.745 232.272 238.719C232.14 239.665 231.738 240.365 230.925 240.816L231.411 241.69C232.552 241.056 233.096 240.048 233.263 238.859C233.426 237.697 233.236 236.343 232.919 234.934C232.601 233.523 232.138 231.984 231.728 230.473C231.313 228.947 230.947 227.431 230.797 226.005L229.802 226.109ZM230.925 240.816C229.198 241.775 226.586 241.539 223.854 239.648C221.136 237.766 218.369 234.279 216.442 228.927L215.501 229.266C217.482 234.767 220.359 238.444 223.285 240.47C226.198 242.486 229.23 242.902 231.411 241.69L230.925 240.816ZM216.442 228.927C216.046 227.826 215.651 227.028 215.245 226.523C214.843 226.023 214.315 225.685 213.707 225.87C213.185 226.03 212.807 226.533 212.523 227.069C212.223 227.635 211.955 228.38 211.713 229.231C210.751 232.63 210.118 238.101 209.829 242.085L210.826 242.157C211.115 238.181 211.742 232.798 212.676 229.504C212.908 228.682 213.154 228.013 213.407 227.537C213.675 227.03 213.89 226.86 213.998 226.827C214.02 226.82 214.161 226.771 214.466 227.15C214.766 227.524 215.116 228.196 215.501 229.266L216.442 228.927Z" fill="#002445"/>
<rect x="103.732" y="245.879" width="47.602" height="33.5477" rx="16.7738" transform="rotate(168.731 103.732 245.879)" stroke="#002445" stroke-width="12"/>
<rect x="96.7042" y="210.692" width="40.1363" height="28.2813" rx="14.1407" transform="rotate(160.841 96.7042 210.692)" stroke="#002445" stroke-width="12"/>
<rect x="96.6409" y="181.855" width="40.9422" height="29.3286" rx="14.6643" transform="rotate(160.839 96.6409 181.855)" stroke="#002445" stroke-width="12"/>
<rect x="95.6985" y="155.047" width="40.522" height="25.0393" rx="12.5197" transform="rotate(167.278 95.6985 155.047)" stroke="#002445" stroke-width="12"/>
<path d="M206.855 37.6265C204.25 40.6657 244.483 74.0968 264.166 90.1611L270.244 83.2144C249.693 67.1501 209.46 34.5873 206.855 37.6265Z" fill="#002445" stroke="#002445"/>
<path d="M256.784 55.4282C255.235 57.597 267.449 68.1429 278.493 77.1367L282.4 72.3792C270.87 63.3853 258.955 52.389 256.784 55.4282Z" fill="#002445" stroke="#002445"/>
<path d="M189.054 121.422C192.094 140.525 206.855 153.55 221.617 165.707C214.67 157.024 199.735 135.576 195.567 119.251C191.399 102.926 193.83 92.7664 195.567 89.7272C192.962 94.0689 185.909 101.65 189.054 121.422Z" fill="#002445" stroke="#002445"/>
<path fill-rule="evenodd" clip-rule="evenodd" d="M193.142 363.687C206.949 363.687 218.142 352.494 218.142 338.687V186.016L225.29 174.965C213.598 175.676 197.806 162.929 187.305 143.256C181.908 133.144 178.809 122.889 178.035 114.044L178.121 114.04C178.148 113.739 178.172 113.434 178.194 113.124C173.723 115.085 168.502 116.211 162.926 116.211C146.38 116.211 127.758 105.357 129.494 92.7662C131.65 77.1361 142.954 69.321 161.623 70.6235C168.138 70.6235 174.369 72.3625 179.529 75.2176C183.315 76.7704 190.302 78.931 192.883 79.3063C192.094 78.2952 190.957 77.3498 189.65 76.264C186.183 73.3824 181.526 69.512 179.041 60.8026C177.987 57.1077 179.839 51.8287 181.298 47.6727C181.761 46.3523 182.185 45.1453 182.463 44.1385L174.214 37.1918L162.057 51.0852C156.283 51.0852 149.032 51.9736 140.997 55.9841C126.036 63.4516 102.685 79.6281 92.9921 115.127C83.4272 118.636 76.6026 127.823 76.6026 138.604V139.355L78.2519 138.908C82.0671 137.872 85.9995 140.125 87.0352 143.941C88.0708 147.756 85.8175 151.688 82.0022 152.724L76.6026 154.19V163.575C80.702 163.235 84.6696 165.684 86.0821 169.749C87.7561 174.567 85.2078 179.829 80.3903 181.503L76.6026 182.819V193.475C80.8774 192.984 85.0723 195.496 86.5434 199.73C88.2467 204.633 85.6532 209.988 80.7507 211.691L76.6026 213.132V338.687C76.6026 352.494 87.7955 363.687 101.603 363.687H193.142Z" fill="#002445"/>
<path d="M218.142 186.016L217.722 185.745L217.642 185.869V186.016H218.142ZM225.29 174.965L225.71 175.237L226.247 174.406L225.26 174.466L225.29 174.965ZM187.305 143.256L186.864 143.491L187.305 143.256ZM178.035 114.044L178.01 113.545L177.492 113.571L177.537 114.088L178.035 114.044ZM178.121 114.04L178.146 114.539L178.581 114.517L178.619 114.084L178.121 114.04ZM178.194 113.124L178.693 113.159L178.751 112.333L177.993 112.666L178.194 113.124ZM129.494 92.7662L129.99 92.8346L129.494 92.7662ZM161.623 70.6235L161.588 71.1223L161.606 71.1235H161.623V70.6235ZM179.529 75.2176L179.287 75.6551L179.313 75.6692L179.34 75.6802L179.529 75.2176ZM192.883 79.3063L192.811 79.8011L194.043 79.9802L193.277 78.9987L192.883 79.3063ZM189.65 76.264L189.97 75.8795H189.97L189.65 76.264ZM179.041 60.8026L179.522 60.6654L179.041 60.8026ZM181.298 47.6727L181.77 47.8382L181.298 47.6727ZM182.463 44.1385L182.945 44.2715L183.03 43.9625L182.785 43.756L182.463 44.1385ZM174.214 37.1918L174.536 36.8093L174.16 36.4933L173.837 36.8625L174.214 37.1918ZM162.057 51.0852V51.5852H162.284L162.433 51.4145L162.057 51.0852ZM140.997 55.9841L141.22 56.4315H141.22L140.997 55.9841ZM92.9921 115.127L93.1644 115.596L93.4065 115.507L93.4745 115.259L92.9921 115.127ZM76.6026 139.355H76.1026V140.009L76.7336 139.838L76.6026 139.355ZM78.2519 138.908L78.3829 139.39L78.2519 138.908ZM82.0022 152.724L81.8713 152.241L82.0022 152.724ZM76.6026 154.19L76.4716 153.707L76.1026 153.807V154.19H76.6026ZM76.6026 163.575H76.1026V164.118L76.6439 164.073L76.6026 163.575ZM86.0821 169.749L86.5544 169.585L86.0821 169.749ZM80.3903 181.503L80.2262 181.031L80.3903 181.503ZM76.6026 182.819L76.4385 182.347L76.1026 182.463V182.819H76.6026ZM76.6026 193.475H76.1026V194.036L76.6597 193.972L76.6026 193.475ZM86.5434 199.73L87.0157 199.566L86.5434 199.73ZM80.7507 211.691L80.9148 212.163L80.7507 211.691ZM76.6026 213.132L76.4385 212.66L76.1026 212.777V213.132H76.6026ZM217.642 338.687C217.642 352.218 206.673 363.187 193.142 363.187V364.187C207.225 364.187 218.642 352.77 218.642 338.687H217.642ZM217.642 186.016V338.687H218.642V186.016H217.642ZM224.87 174.694L217.722 185.745L218.562 186.288L225.71 175.237L224.87 174.694ZM186.864 143.491C192.141 153.377 198.753 161.536 205.532 167.14C212.298 172.733 219.292 175.831 225.32 175.465L225.26 174.466C219.596 174.81 212.848 171.89 206.17 166.369C199.505 160.859 192.971 152.808 187.746 143.02L186.864 143.491ZM177.537 114.088C178.317 123.009 181.44 133.329 186.864 143.491L187.746 143.02C182.376 132.959 179.3 122.769 178.533 114.001L177.537 114.088ZM178.096 113.541L178.01 113.545L178.06 114.544L178.146 114.539L178.096 113.541ZM177.695 113.088C177.673 113.396 177.649 113.698 177.623 113.996L178.619 114.084C178.646 113.78 178.67 113.472 178.693 113.159L177.695 113.088ZM177.993 112.666C173.588 114.599 168.436 115.711 162.926 115.711V116.711C168.569 116.711 173.858 115.572 178.395 113.582L177.993 112.666ZM162.926 115.711C154.751 115.711 146.055 113.027 139.629 108.793C133.183 104.546 129.161 98.8438 129.99 92.8346L128.999 92.6979C128.091 99.2796 132.512 105.3 139.079 109.628C145.667 113.969 154.555 116.711 162.926 116.711V115.711ZM129.99 92.8346C131.052 85.1322 134.357 79.4079 139.65 75.7567C144.955 72.0973 152.323 70.476 161.588 71.1223L161.658 70.1248C152.253 69.4686 144.635 71.1036 139.082 74.9336C133.518 78.7719 130.093 84.7701 128.999 92.6979L129.99 92.8346ZM161.623 71.1235C168.05 71.1235 174.198 72.8397 179.287 75.6551L179.771 74.7801C174.539 71.8853 168.225 70.1235 161.623 70.1235V71.1235ZM192.955 78.8115C191.707 78.63 189.348 78.007 186.805 77.2256C184.27 76.4469 181.593 75.5236 179.719 74.755L179.34 75.6802C181.252 76.4644 183.96 77.3978 186.511 78.1815C189.053 78.9624 191.478 79.6073 192.811 79.8011L192.955 78.8115ZM189.331 76.6485C190.65 77.7451 191.74 78.6542 192.489 79.6138L193.277 78.9987C192.448 77.9362 191.263 76.9545 189.97 75.8795L189.331 76.6485ZM178.56 60.9398C181.088 69.7978 185.842 73.7489 189.331 76.6485L189.97 75.8795C186.524 73.0158 181.965 69.2261 179.522 60.6654L178.56 60.9398ZM180.826 47.5071C180.099 49.58 179.26 51.9668 178.739 54.3016C178.22 56.6274 177.998 58.9705 178.56 60.9398L179.522 60.6654C179.03 58.9398 179.207 56.7959 179.715 54.5195C180.221 52.2521 181.039 49.9213 181.77 47.8382L180.826 47.5071ZM181.981 44.0054C181.708 44.9923 181.291 46.1813 180.826 47.5071L181.77 47.8382C182.231 46.5233 182.661 45.2984 182.945 44.2715L181.981 44.0054ZM173.892 37.5742L182.141 44.5209L182.785 43.756L174.536 36.8093L173.892 37.5742ZM162.433 51.4145L174.59 37.521L173.837 36.8625L161.681 50.756L162.433 51.4145ZM141.22 56.4315C149.169 52.4641 156.339 51.5852 162.057 51.5852V50.5852C156.227 50.5852 148.895 51.4831 140.774 55.5368L141.22 56.4315ZM93.4745 115.259C103.117 79.9432 126.337 63.8605 141.22 56.4315L140.774 55.5368C125.736 63.0428 102.253 79.313 92.5098 114.995L93.4745 115.259ZM77.1026 138.604C77.1026 128.04 83.79 119.035 93.1644 115.596L92.8199 114.657C83.0645 118.236 76.1026 127.607 76.1026 138.604H77.1026ZM77.1026 139.355V138.604H76.1026V139.355H77.1026ZM78.1209 138.425L76.4716 138.873L76.7336 139.838L78.3829 139.39L78.1209 138.425ZM87.5177 143.81C86.4097 139.728 82.2027 137.317 78.1209 138.425L78.3829 139.39C81.9316 138.427 85.5893 140.523 86.5526 144.072L87.5177 143.81ZM82.1332 153.206C86.215 152.098 88.6257 147.891 87.5177 143.81L86.5526 144.072C87.5159 147.62 85.42 151.278 81.8713 152.241L82.1332 153.206ZM76.7336 154.672L82.1332 153.206L81.8713 152.241L76.4716 153.707L76.7336 154.672ZM77.1026 163.575V154.19H76.1026V163.575H77.1026ZM86.5544 169.585C85.0652 165.299 80.8825 162.718 76.5613 163.076L76.6439 164.073C80.5214 163.751 84.274 166.069 85.6098 169.913L86.5544 169.585ZM80.5544 181.975C85.6328 180.211 88.319 174.663 86.5544 169.585L85.6098 169.913C87.1932 174.47 84.7828 179.447 80.2262 181.031L80.5544 181.975ZM76.7667 183.291L80.5544 181.975L80.2262 181.031L76.4385 182.347L76.7667 183.291ZM77.1026 193.475V182.819H76.1026V193.475H77.1026ZM87.0157 199.566C85.4661 195.106 81.0479 192.461 76.5456 192.979L76.6597 193.972C80.7069 193.507 84.6785 195.886 86.071 199.894L87.0157 199.566ZM80.9148 212.163C86.0781 210.369 88.8096 204.729 87.0157 199.566L86.071 199.894C87.6837 204.536 85.2282 209.606 80.5866 211.219L80.9148 212.163ZM76.7667 213.605L80.9148 212.163L80.5866 211.219L76.4385 212.66L76.7667 213.605ZM77.1026 338.687V213.132H76.1026V338.687H77.1026ZM101.603 363.187C88.0716 363.187 77.1026 352.218 77.1026 338.687H76.1026C76.1026 352.77 87.5193 364.187 101.603 364.187V363.187ZM193.142 363.187H101.603V364.187H193.142V363.187Z" fill="#002445"/>
<g filter="url(#filter0_d_159_1327)">
<path d="M105.712 356.668C123.57 354.399 140.521 350.059 137.54 295.058C134.559 240.056 138.76 342.826 157.794 356.668C133.497 369.992 133.546 395.067 137.537 444.789L137.447 443.67C132.015 375.998 131.287 366.93 105.712 356.668Z" fill="#FAC748" stroke="#FAC748" stroke-width="3"/>
<path d="M149.61 428.47C158.539 427.342 167.015 425.184 165.524 397.832C164.034 370.48 166.135 421.586 175.651 428.47C163.503 435.096 163.527 447.565 165.523 472.291L165.478 471.735C162.762 438.083 162.398 433.573 149.61 428.47Z" fill="#FAC748" stroke="#FAC748" stroke-width="3"/>
<path fill-rule="evenodd" clip-rule="evenodd" d="M106.556 414.365C103.618 433.205 107.36 448.436 117.773 456.267C128.187 464.098 143.858 463.465 161.143 455.412C178.362 447.391 196.796 432.154 212.284 411.556C227.773 390.959 237.294 369.02 240.221 350.251C243.159 331.41 239.417 316.18 229.004 308.349C218.59 300.518 202.919 301.151 185.634 309.204C168.415 317.225 149.981 332.462 134.493 353.059C119.004 373.657 109.483 395.596 106.556 414.365ZM103.592 413.902C106.609 394.557 116.37 372.168 132.095 351.256C147.82 330.345 166.62 314.752 184.367 306.484C202.049 298.247 219.077 297.13 230.807 305.951C242.537 314.772 246.191 331.44 243.185 350.714C240.169 370.059 230.407 392.448 214.682 413.36C198.957 434.271 180.158 449.864 162.41 458.132C144.728 466.369 127.7 467.485 115.97 458.665C104.24 449.844 100.586 433.175 103.592 413.902Z" fill="#FAC748"/>
<path fill-rule="evenodd" clip-rule="evenodd" d="M75.7658 362.378C62.4357 376.013 56.6401 390.587 60.5733 403.008C64.5064 415.43 77.6338 424.012 96.3825 427.49C115.06 430.955 138.915 429.25 163.484 421.471C188.052 413.691 208.541 401.355 221.82 387.772C235.151 374.137 240.946 359.563 237.013 347.142C233.08 334.72 219.952 326.138 201.204 322.66C182.527 319.195 158.672 320.9 134.103 328.679C109.534 336.459 89.0449 348.795 75.7658 362.378ZM73.6206 360.281C87.3076 346.28 108.254 333.717 133.197 325.819C158.14 317.921 182.5 316.139 201.751 319.71C220.93 323.268 235.443 332.244 239.873 346.236C244.303 360.228 237.602 375.921 223.966 389.869C210.279 403.87 189.332 416.433 164.389 424.331C139.446 432.229 115.086 434.011 95.8354 430.44C76.6565 426.882 62.1435 417.906 57.7132 403.914C53.2829 389.922 59.9846 374.229 73.6206 360.281Z" fill="#FAC748"/>
</g>
<path d="M183.672 264C183.787 265.63 184.843 270.146 186.77 272.381C188.698 274.616 192.279 274.942 194 275.175C192.164 275.524 188.423 276.641 186.77 278.317C185.148 279.963 183.946 283.989 183.685 285.897C183.682 285.932 183.677 285.967 183.672 286C183.676 285.966 183.681 285.932 183.685 285.897C183.857 284.327 182.848 280.776 179.885 278.317C176.856 275.803 174.262 275.175 173 275.175C174.492 274.942 177.957 274.057 179.885 272.381C181.813 270.705 183.213 266.095 183.672 264Z" fill="#FAC748"/>
<path d="M113.115 237C113.191 238.111 113.895 241.19 115.18 242.714C116.466 244.238 118.852 244.46 120 244.619C118.776 244.857 116.282 245.619 115.18 246.762C114.099 247.884 113.297 250.629 113.124 251.93C113.121 251.954 113.118 251.977 113.115 252C113.118 251.977 113.12 251.954 113.124 251.93C113.238 250.859 112.565 248.439 110.59 246.762C108.57 245.048 106.842 244.619 106 244.619C106.995 244.46 109.305 243.857 110.59 242.714C111.875 241.571 112.809 238.429 113.115 237Z" fill="#FAC748"/>
<path d="M119.672 468C119.787 469.63 120.843 474.146 122.77 476.381C124.698 478.616 128.279 478.942 130 479.175C128.164 479.524 124.423 480.641 122.77 482.317C121.148 483.963 119.946 487.989 119.685 489.897C119.682 489.932 119.677 489.967 119.672 490C119.676 489.966 119.681 489.932 119.685 489.897C119.857 488.327 118.848 484.776 115.885 482.317C112.856 479.803 110.262 479.175 109 479.175C110.492 478.942 113.957 478.057 115.885 476.381C117.813 474.705 119.213 470.095 119.672 468Z" fill="#FAC748"/>
<path d="M197.59 448C197.65 448.815 198.203 451.073 199.213 452.19C200.223 453.308 202.098 453.471 203 453.587C202.038 453.762 200.079 454.321 199.213 455.159C198.363 455.982 197.733 457.995 197.597 458.949C197.595 458.966 197.593 458.983 197.59 459C197.592 458.983 197.595 458.966 197.597 458.949C197.687 458.163 197.159 456.388 195.607 455.159C194.02 453.902 192.661 453.587 192 453.587C192.781 453.471 194.597 453.029 195.607 452.19C196.616 451.352 197.35 449.048 197.59 448Z" fill="#FAC748"/>
<path d="M157.098 504C157.164 504.963 157.767 507.632 158.869 508.952C159.97 510.273 162.016 510.466 163 510.603C161.951 510.81 159.813 511.47 158.869 512.46C157.942 513.433 157.255 515.812 157.106 516.939C157.104 516.96 157.101 516.98 157.098 517C157.101 516.98 157.103 516.96 157.106 516.939C157.204 516.011 156.628 513.913 154.934 512.46C153.203 510.975 151.721 510.603 151 510.603C151.852 510.466 153.833 509.943 154.934 508.952C156.036 507.962 156.836 505.238 157.098 504Z" fill="#FAC748"/>
<defs>
<filter id="filter0_d_159_1327" x="46.3555" y="267.581" width="207.831" height="214.847" filterUnits="userSpaceOnUse" color-interpolation-filters="sRGB">
<feFlood flood-opacity="0" result="BackgroundImageFix"/>
<feColorMatrix in="SourceAlpha" type="matrix" values="0 0 0 0 0 0 0 0 0 0 0 0 0 0 0 0 0 0 127 0" result="hardAlpha"/>
<feOffset/>
<feGaussianBlur stdDeviation="5"/>
<feComposite in2="hardAlpha" operator="out"/>
<feColorMatrix type="matrix" values="0 0 0 0 1 0 0 0 0 1 0 0 0 0 1 0 0 0 1 0"/>
<feBlend mode="normal" in2="BackgroundImageFix" result="effect1_dropShadow_159_1327"/>
<feBlend mode="normal" in="SourceGraphic" in2="effect1_dropShadow_159_1327" result="shape"/>
</filter>
</defs>
</svg>
