<svg width="444" height="612" viewBox="0 0 444 612" fill="none" xmlns="http://www.w3.org/2000/svg">
<path d="M254.074 409.47C261.574 405.853 272.361 413.645 275.601 417.819C275.138 424.196 273.587 435.211 271.087 428.254C267.963 419.558 262.06 416.775 258.935 418.514C255.81 420.253 259.135 425.984 259.63 430.689C260.324 437.298 260.732 443.531 257.546 451.908C254.769 459.212 245.751 476.285 242.617 483.91C240.186 489.823 242.617 502.346 244.7 514.869C246.074 523.132 254.422 535.044 254.769 536.088C255.046 536.922 259.745 541.305 262.06 543.392L304.766 580.612L308.932 584.091C311.015 586.525 312.126 587.917 311.71 590.004C311.418 591.474 310.321 593.482 309.279 594.526C304.997 599.396 298.481 607.337 297.821 608.092C295.391 610.875 291.919 612.266 289.489 609.484C288.258 608.074 288.1 605.657 289.836 603.222C291.571 600.787 295.044 596.613 295.044 596.613L300.6 590.004L239.839 536.088C232.316 544.088 219.7 557.655 215.882 561.481C214.493 562.872 211.765 563.525 209.979 561.481C207.548 558.698 210.325 555.219 211.02 554.523C211.02 554.523 211.88 553.48 213.104 552.089C220.858 543.276 234.839 528.783 235.672 527.391C238.381 522.869 235.288 517.999 234.284 508.607C233.242 498.867 231.506 487.388 233.589 483.214C238.5 473.376 246.783 457.474 249.561 448.082C251.783 440.568 250.371 430.573 248.866 424.428C247.759 419.906 246.575 413.088 254.074 409.47Z" fill="#002445"/>
<path d="M275.601 417.819L276.1 417.855L276.114 417.664L275.996 417.512L275.601 417.819ZM254.074 409.47L254.292 409.921L254.074 409.47ZM248.866 424.428L248.381 424.547L248.866 424.428ZM249.561 448.082L249.081 447.94L249.561 448.082ZM233.589 483.214L234.037 483.438L233.589 483.214ZM234.284 508.607L233.786 508.66L234.284 508.607ZM235.672 527.391L236.101 527.648L235.672 527.391ZM213.104 552.089L213.479 552.419L213.104 552.089ZM211.02 554.523L211.374 554.877L211.391 554.86L211.406 554.841L211.02 554.523ZM209.979 561.481L209.602 561.809H209.602L209.979 561.481ZM215.882 561.481L216.236 561.834H216.236L215.882 561.481ZM239.839 536.088L240.171 535.714C239.968 535.534 239.66 535.548 239.475 535.745L239.839 536.088ZM300.6 590.004L300.983 590.326C301.157 590.119 301.134 589.81 300.932 589.63L300.6 590.004ZM295.044 596.613L294.661 596.291L294.659 596.293L295.044 596.613ZM289.836 603.222L290.243 603.512L289.836 603.222ZM289.489 609.484L289.866 609.155L289.489 609.484ZM297.821 608.092L298.198 608.421H298.198L297.821 608.092ZM309.279 594.526L308.925 594.173L308.914 594.184L308.904 594.196L309.279 594.526ZM311.71 590.004L312.201 590.102L311.71 590.004ZM308.932 584.091L309.312 583.766L309.285 583.734L309.252 583.707L308.932 584.091ZM304.766 580.612L304.438 580.989L304.446 580.996L304.766 580.612ZM262.06 543.392L261.725 543.764L261.732 543.769L262.06 543.392ZM254.769 536.088L255.243 535.93L254.769 536.088ZM244.7 514.869L244.207 514.951L244.7 514.869ZM242.617 483.91L243.079 484.1L242.617 483.91ZM257.546 451.908L257.079 451.73L257.546 451.908ZM259.63 430.689L259.132 430.741L259.63 430.689ZM271.087 428.254L270.617 428.423L271.087 428.254ZM275.996 417.512C274.324 415.358 270.755 412.322 266.658 410.275C262.576 408.236 257.821 407.108 253.857 409.02L254.292 409.921C257.828 408.215 262.215 409.174 266.211 411.17C270.193 413.159 273.638 416.105 275.206 418.125L275.996 417.512ZM253.857 409.02C249.962 410.899 248.283 413.642 247.751 416.519C247.227 419.355 247.826 422.282 248.381 424.547L249.352 424.309C248.799 422.051 248.253 419.308 248.734 416.701C249.209 414.134 250.687 411.659 254.292 409.921L253.857 409.02ZM248.381 424.547C249.881 430.673 251.264 440.559 249.081 447.94L250.04 448.223C252.302 440.577 250.861 430.473 249.352 424.309L248.381 424.547ZM249.081 447.94C246.32 457.277 238.068 473.122 233.142 482.991L234.037 483.438C238.932 473.63 247.246 457.67 250.04 448.223L249.081 447.94ZM233.142 482.991C232.575 484.126 232.288 485.707 232.173 487.542C232.057 489.388 232.113 491.542 232.266 493.856C232.57 498.479 233.267 503.808 233.786 508.66L234.781 508.554C234.258 503.666 233.566 498.386 233.263 493.791C233.112 491.496 233.059 489.389 233.171 487.604C233.284 485.808 233.561 484.39 234.037 483.438L233.142 482.991ZM233.786 508.66C234.291 513.38 235.33 517.018 235.879 519.918C236.434 522.848 236.499 525.038 235.243 527.134L236.101 527.648C237.554 525.222 237.427 522.716 236.862 519.732C236.291 516.719 235.281 513.227 234.781 508.554L233.786 508.66ZM235.243 527.134C235.167 527.261 234.893 527.602 234.405 528.162C233.932 528.704 233.29 529.415 232.516 530.26C230.969 531.95 228.903 534.166 226.618 536.616C222.051 541.513 216.612 547.346 212.729 551.758L213.479 552.419C217.351 548.019 222.779 542.199 227.349 537.298C229.633 534.849 231.703 532.63 233.254 530.936C234.029 530.089 234.677 529.37 235.158 528.819C235.624 528.285 235.969 527.869 236.101 527.648L235.243 527.134ZM212.729 551.758C212.114 552.457 211.591 553.068 211.221 553.505C211.037 553.723 210.89 553.898 210.79 554.018C210.739 554.079 210.701 554.125 210.675 554.157C210.661 554.173 210.651 554.185 210.645 554.193C210.641 554.197 210.639 554.2 210.637 554.202C210.636 554.203 210.635 554.204 210.635 554.205C210.635 554.205 210.635 554.205 210.635 554.205C210.634 554.205 210.634 554.205 210.634 554.205C210.634 554.205 210.634 554.205 210.634 554.205C210.634 554.205 210.634 554.205 211.02 554.523C211.406 554.841 211.406 554.841 211.406 554.841C211.406 554.841 211.406 554.841 211.406 554.841C211.406 554.841 211.406 554.841 211.406 554.841C211.406 554.841 211.406 554.841 211.407 554.841C211.407 554.84 211.408 554.839 211.408 554.839C211.41 554.837 211.412 554.834 211.416 554.83C211.422 554.822 211.432 554.81 211.445 554.795C211.47 554.764 211.508 554.718 211.558 554.659C211.657 554.54 211.802 554.367 211.985 554.151C212.351 553.718 212.87 553.112 213.479 552.419L212.729 551.758ZM210.666 554.17C210.285 554.552 209.367 555.655 208.858 557.047C208.343 558.455 208.226 560.234 209.602 561.809L210.355 561.152C209.301 559.945 209.357 558.592 209.797 557.391C210.242 556.174 211.061 555.19 211.374 554.877L210.666 554.17ZM209.602 561.809C210.608 562.961 211.896 563.36 213.117 563.268C214.321 563.176 215.461 562.61 216.236 561.834L215.528 561.127C214.914 561.742 213.995 562.198 213.041 562.27C212.105 562.341 211.135 562.045 210.355 561.152L209.602 561.809ZM216.236 561.834C220.061 558.001 232.688 544.423 240.203 536.43L239.475 535.745C231.944 543.754 219.339 557.309 215.528 561.127L216.236 561.834ZM239.507 536.462L300.268 590.378L300.932 589.63L240.171 535.714L239.507 536.462ZM300.217 589.682L294.661 596.291L295.427 596.935L300.983 590.326L300.217 589.682ZM295.044 596.613C294.659 596.293 294.659 596.293 294.659 596.293C294.659 596.293 294.659 596.293 294.659 596.294C294.659 596.294 294.659 596.294 294.659 596.294C294.658 596.295 294.658 596.295 294.657 596.296C294.655 596.299 294.653 596.302 294.649 596.306C294.643 596.314 294.633 596.326 294.62 596.341C294.594 596.373 294.555 596.419 294.506 596.479C294.407 596.598 294.264 596.771 294.088 596.986C293.734 597.416 293.245 598.015 292.701 598.691C291.616 600.039 290.306 601.702 289.429 602.932L290.243 603.512C291.101 602.308 292.395 600.666 293.48 599.318C294.021 598.646 294.509 598.049 294.86 597.621C295.036 597.407 295.178 597.234 295.276 597.116C295.325 597.057 295.363 597.011 295.389 596.98C295.402 596.964 295.412 596.953 295.418 596.945C295.422 596.941 295.424 596.938 295.426 596.936C295.427 596.935 295.427 596.934 295.428 596.934C295.428 596.933 295.428 596.933 295.428 596.933C295.428 596.933 295.428 596.933 295.428 596.933C295.428 596.933 295.428 596.933 295.044 596.613ZM289.429 602.932C287.595 605.504 287.691 608.185 289.113 609.813L289.866 609.155C288.825 607.963 288.605 605.81 290.243 603.512L289.429 602.932ZM289.113 609.813C290.455 611.35 292.123 611.75 293.77 611.362C295.381 610.982 296.941 609.86 298.198 608.421L297.445 607.763C296.272 609.107 294.881 610.072 293.54 610.388C292.236 610.696 290.953 610.4 289.866 609.155L289.113 609.813ZM298.198 608.421C298.532 608.038 300.336 605.853 302.575 603.173C304.822 600.485 307.518 597.286 309.655 594.856L308.904 594.196C306.758 596.636 304.055 599.843 301.808 602.532C299.554 605.228 297.77 607.391 297.445 607.763L298.198 608.421ZM309.633 594.879C310.198 594.313 310.76 593.507 311.216 592.663C311.671 591.819 312.042 590.901 312.201 590.102L311.22 589.906C311.086 590.577 310.762 591.398 310.336 592.187C309.91 592.976 309.402 593.695 308.925 594.173L309.633 594.879ZM312.201 590.102C312.434 588.931 312.233 587.944 311.7 586.943C311.183 585.972 310.344 584.972 309.312 583.766L308.552 584.416C309.603 585.644 310.362 586.557 310.817 587.413C311.256 588.238 311.402 588.99 311.22 589.906L312.201 590.102ZM309.252 583.707L305.087 580.228L304.446 580.996L308.612 584.474L309.252 583.707ZM305.095 580.235L262.389 543.015L261.732 543.769L304.438 580.989L305.095 580.235ZM262.395 543.021C261.241 541.98 259.492 540.367 258 538.912C257.253 538.184 256.574 537.5 256.068 536.949C255.814 536.673 255.609 536.436 255.461 536.247C255.386 536.153 255.331 536.075 255.292 536.015C255.25 535.949 255.241 535.923 255.243 535.93L254.294 536.245C254.36 536.442 254.517 536.665 254.673 536.864C254.844 537.082 255.07 537.341 255.332 537.626C255.856 538.197 256.55 538.896 257.302 539.628C258.806 541.095 260.565 542.717 261.725 543.764L262.395 543.021ZM255.243 535.93C255.205 535.815 255.13 535.67 255.052 535.527C254.967 535.373 254.855 535.181 254.722 534.958C254.456 534.514 254.093 533.926 253.669 533.233C252.817 531.842 251.702 530.004 250.557 527.943C248.256 523.803 245.865 518.826 245.193 514.787L244.207 514.951C244.909 519.175 247.379 524.285 249.683 528.428C250.839 530.509 251.962 532.361 252.816 533.755C253.244 534.454 253.601 535.033 253.864 535.472C253.995 535.691 254.099 535.87 254.175 536.009C254.213 536.078 254.243 536.134 254.264 536.177C254.274 536.199 254.282 536.216 254.287 536.228C254.293 536.241 254.295 536.247 254.294 536.245L255.243 535.93ZM245.193 514.787C244.149 508.513 243.025 502.275 242.463 496.859C241.898 491.418 241.917 486.927 243.079 484.1L242.154 483.72C240.886 486.806 240.905 491.533 241.468 496.963C242.034 502.418 243.167 508.701 244.207 514.951L245.193 514.787ZM243.079 484.1C244.638 480.307 247.666 474.152 250.664 468.008C253.653 461.883 256.615 455.764 258.014 452.086L257.079 451.73C255.7 455.356 252.764 461.426 249.766 467.569C246.777 473.694 243.729 479.888 242.154 483.72L243.079 484.1ZM258.014 452.086C261.241 443.598 260.824 437.271 260.127 430.637L259.132 430.741C259.824 437.326 260.222 443.464 257.079 451.73L258.014 452.086ZM260.127 430.637C259.999 429.419 259.689 428.146 259.356 426.916C259.018 425.67 258.661 424.485 258.413 423.38C258.165 422.273 258.044 421.32 258.151 420.558C258.254 419.824 258.561 419.295 259.178 418.951L258.692 418.077C257.747 418.604 257.298 419.442 257.161 420.419C257.028 421.368 257.183 422.467 257.437 423.599C257.692 424.732 258.063 425.97 258.391 427.177C258.722 428.399 259.013 429.607 259.132 430.741L260.127 430.637ZM259.178 418.951C260.514 418.208 262.56 418.379 264.726 419.882C266.879 421.375 269.081 424.15 270.617 428.423L271.558 428.085C269.969 423.663 267.657 420.698 265.296 419.06C262.949 417.432 260.482 417.081 258.692 418.077L259.178 418.951ZM270.617 428.423C270.935 429.308 271.255 429.96 271.59 430.378C271.921 430.791 272.382 431.1 272.928 430.934C273.387 430.794 273.705 430.357 273.934 429.925C274.179 429.462 274.396 428.858 274.589 428.173C275.362 425.439 275.868 421.048 276.1 417.855L275.103 417.783C274.871 420.967 274.37 425.272 273.627 427.901C273.442 428.557 273.247 429.085 273.05 429.457C272.837 429.861 272.681 429.964 272.636 429.977C272.635 429.978 272.634 429.978 272.633 429.978C272.632 429.978 272.632 429.978 272.632 429.978C272.632 429.978 272.632 429.978 272.632 429.978C272.633 429.978 272.633 429.978 272.632 429.978C272.632 429.978 272.63 429.978 272.627 429.977C272.623 429.976 272.616 429.974 272.606 429.969C272.565 429.949 272.484 429.893 272.37 429.752C272.14 429.465 271.865 428.939 271.558 428.085L270.617 428.423Z" fill="#002445"/>
<rect x="-7.05433" y="-4.71012" width="40.4728" height="29.2624" rx="14.6312" transform="matrix(0.98065 -0.195769 0.195072 0.980789 367.272 417.112)" stroke="#002445" stroke-width="12"/>
<rect x="-7.63243" y="-3.6964" width="34.505" height="25.0417" rx="12.5209" transform="matrix(0.944423 -0.328734 0.327648 0.9448 373.359 443.249)" stroke="#002445" stroke-width="12"/>
<rect x="-7.63257" y="-3.6961" width="35.1497" height="25.8806" rx="12.9403" transform="matrix(0.94441 -0.328771 0.327685 0.944787 373.41 466.352)" stroke="#002445" stroke-width="12"/>
<rect x="-7.1712" y="-4.52952" width="34.811" height="22.4459" rx="11.223" transform="matrix(0.975361 -0.220616 0.219839 0.975536 373.826 489.518)" stroke="#002445" stroke-width="12"/>
<path d="M278.378 581.655C280.461 579.22 248.286 552.436 232.546 539.565L227.686 545.131C244.12 558.001 276.294 584.09 278.378 581.655Z" fill="#002445" stroke="#002445"/>
<path d="M238.45 567.394C239.689 565.656 229.921 557.207 221.09 550.001L217.965 553.813C227.186 561.019 236.714 569.829 238.45 567.394Z" fill="#002445" stroke="#002445"/>
<path d="M292.614 514.521C290.183 499.215 278.378 488.78 266.573 479.04C272.129 485.997 284.072 503.181 287.406 516.26C290.739 529.339 288.794 537.479 287.406 539.914C289.489 536.435 295.129 530.361 292.614 514.521Z" fill="#002445" stroke="#002445"/>
<path fill-rule="evenodd" clip-rule="evenodd" d="M294.35 320.42C280.543 320.42 269.35 331.613 269.35 345.42V462.768L263.635 471.621C272.985 471.052 285.613 481.265 294.011 497.026C298.327 505.128 300.805 513.344 301.424 520.43L301.355 520.434C301.334 520.675 301.315 520.92 301.297 521.169C304.873 519.597 309.048 518.695 313.508 518.695C326.74 518.695 341.632 527.391 340.243 537.478C338.519 550.001 329.48 556.262 314.55 555.219C309.34 555.219 304.356 553.825 300.229 551.537C297.202 550.293 291.615 548.562 289.55 548.262C290.181 549.072 291.091 549.829 292.136 550.699C294.908 553.008 298.632 556.109 300.62 563.086C301.463 566.047 299.981 570.276 298.815 573.606C298.444 574.664 298.106 575.631 297.883 576.437L304.48 582.003L314.202 570.872C318.819 570.872 324.618 570.16 331.044 566.947C343.297 560.82 362.588 547.373 369.976 517.474C376.246 513.871 380.807 507.627 382.139 500.26L381.23 500.507C378.174 501.338 375.025 499.534 374.197 496.477C373.369 493.421 375.175 490.269 378.231 489.438L382.539 488.266V480.745C379.259 481.015 376.087 479.054 374.959 475.8C373.62 471.94 375.662 467.722 379.52 466.379L382.539 465.328V456.788C379.119 457.179 375.765 455.168 374.59 451.779C373.227 447.851 375.306 443.559 379.232 442.192L382.539 441.041V345.42C382.539 331.613 371.346 320.42 357.539 320.42H294.35Z" fill="#002445"/>
<path d="M269.35 462.768L269.77 463.04L269.85 462.916V462.768H269.35ZM263.635 471.621L263.215 471.35L262.679 472.18L263.665 472.12L263.635 471.621ZM294.011 497.026L293.569 497.261L294.011 497.026ZM301.424 520.43L301.449 520.93L301.967 520.903L301.922 520.387L301.424 520.43ZM301.355 520.434L301.33 519.934L300.895 519.956L300.857 520.39L301.355 520.434ZM301.297 521.169L300.799 521.133L300.74 521.96L301.498 521.626L301.297 521.169ZM340.243 537.478L340.739 537.547L340.243 537.478ZM314.55 555.219L314.585 554.72L314.567 554.719H314.55V555.219ZM300.229 551.537L300.472 551.1L300.446 551.086L300.419 551.075L300.229 551.537ZM289.55 548.262L289.623 547.767L288.392 547.588L289.156 548.569L289.55 548.262ZM292.136 550.699L291.816 551.083H291.816L292.136 550.699ZM300.62 563.086L301.101 562.949L300.62 563.086ZM298.815 573.606L299.287 573.771L298.815 573.606ZM297.883 576.437L297.401 576.305L297.316 576.613L297.561 576.82L297.883 576.437ZM304.48 582.003L304.158 582.385L304.534 582.702L304.857 582.332L304.48 582.003ZM314.202 570.872V570.372H313.975L313.825 570.543L314.202 570.872ZM331.044 566.947L330.82 566.5L331.044 566.947ZM369.976 517.474L369.726 517.04L369.541 517.147L369.49 517.354L369.976 517.474ZM382.139 500.26L382.631 500.349L382.772 499.569L382.008 499.777L382.139 500.26ZM381.23 500.507L381.099 500.025H381.099L381.23 500.507ZM374.197 496.477L374.68 496.346L374.197 496.477ZM378.231 489.438L378.362 489.92L378.231 489.438ZM382.539 488.266L382.67 488.749L383.039 488.648V488.266H382.539ZM382.539 480.745H383.039V480.202L382.498 480.246L382.539 480.745ZM374.959 475.8L374.486 475.963L374.959 475.8ZM379.52 466.379L379.685 466.851L379.52 466.379ZM382.539 465.328L382.704 465.8L383.039 465.684V465.328H382.539ZM382.539 456.788H383.039V456.228L382.482 456.291L382.539 456.788ZM374.59 451.779L375.062 451.615L374.59 451.779ZM379.232 442.192L379.068 441.72L379.232 442.192ZM382.539 441.041L382.704 441.514L383.039 441.397V441.041H382.539ZM269.85 345.42C269.85 331.889 280.819 320.92 294.35 320.92V319.92C280.267 319.92 268.85 331.337 268.85 345.42H269.85ZM269.85 462.768V345.42H268.85V462.768H269.85ZM264.055 471.892L269.77 463.04L268.93 462.497L263.215 471.35L264.055 471.892ZM294.452 496.791C290.227 488.861 284.932 482.314 279.499 477.815C274.08 473.326 268.462 470.827 263.604 471.122L263.665 472.12C268.157 471.847 273.529 474.169 278.861 478.585C284.18 482.99 289.397 489.429 293.569 497.261L294.452 496.791ZM301.922 520.387C301.297 513.224 298.795 504.943 294.452 496.791L293.569 497.261C297.859 505.313 300.314 513.464 300.926 520.474L301.922 520.387ZM301.381 520.933L301.449 520.93L301.399 519.931L301.33 519.934L301.381 520.933ZM301.796 521.204C301.814 520.958 301.833 520.716 301.854 520.477L300.857 520.39C300.836 520.634 300.816 520.882 300.799 521.133L301.796 521.204ZM301.498 521.626C305.009 520.084 309.115 519.195 313.508 519.195V518.195C308.982 518.195 304.738 519.11 301.096 520.711L301.498 521.626ZM313.508 519.195C320.026 519.195 326.961 521.34 332.083 524.721C337.225 528.116 340.403 532.652 339.748 537.41L340.739 537.547C341.472 532.217 337.898 527.362 332.634 523.886C327.349 520.397 320.222 518.195 313.508 518.195V519.195ZM339.748 537.41C338.901 543.559 336.27 548.118 332.065 551.024C327.847 553.939 321.98 555.237 314.585 554.72L314.515 555.717C322.05 556.244 328.168 554.933 332.633 551.847C337.11 548.753 339.861 543.92 340.739 537.547L339.748 537.41ZM314.55 554.719C309.427 554.719 304.527 553.348 300.472 551.1L299.987 551.975C304.186 554.302 309.252 555.719 314.55 555.719V554.719ZM289.478 548.756C290.468 548.901 292.348 549.398 294.382 550.024C296.407 550.647 298.545 551.386 300.039 552L300.419 551.075C298.887 550.445 296.717 549.696 294.676 549.068C292.643 548.442 290.697 547.923 289.623 547.767L289.478 548.756ZM292.456 550.315C291.398 549.434 290.536 548.713 289.945 547.954L289.156 548.569C289.827 549.43 290.784 550.224 291.816 551.083L292.456 550.315ZM301.101 562.949C299.071 555.823 295.25 552.642 292.456 550.315L291.816 551.083C294.567 553.374 298.194 556.394 300.139 563.223L301.101 562.949ZM299.287 573.771C299.868 572.111 300.541 570.194 300.959 568.316C301.375 566.448 301.557 564.551 301.101 562.949L300.139 563.223C300.526 564.582 300.388 566.28 299.983 568.099C299.58 569.909 298.928 571.771 298.343 573.441L299.287 573.771ZM298.365 576.57C298.582 575.784 298.914 574.834 299.287 573.771L298.343 573.441C297.974 574.493 297.629 575.478 297.401 576.305L298.365 576.57ZM304.803 581.621L298.206 576.055L297.561 576.82L304.158 582.385L304.803 581.621ZM313.825 570.543L304.104 581.674L304.857 582.332L314.579 571.201L313.825 570.543ZM330.82 566.5C324.481 569.67 318.763 570.372 314.202 570.372V571.372C318.875 571.372 324.755 570.651 331.267 567.394L330.82 566.5ZM369.49 517.354C362.15 547.064 342.993 560.412 330.82 566.5L331.267 567.394C343.6 561.227 363.027 547.683 370.461 517.594L369.49 517.354ZM381.647 500.171C380.342 507.389 375.873 513.509 369.726 517.04L370.225 517.907C376.62 514.233 381.272 507.865 382.631 500.349L381.647 500.171ZM381.361 500.99L382.27 500.742L382.008 499.777L381.099 500.025L381.361 500.99ZM373.714 496.608C374.615 499.931 378.038 501.893 381.361 500.99L381.099 500.025C378.309 500.783 375.435 499.136 374.68 496.346L373.714 496.608ZM378.099 488.955C374.777 489.859 372.814 493.285 373.714 496.608L374.68 496.346C373.924 493.556 375.572 490.679 378.362 489.92L378.099 488.955ZM382.408 487.784L378.099 488.955L378.362 489.92L382.67 488.749L382.408 487.784ZM382.039 480.745V488.266H383.039V480.745H382.039ZM374.486 475.963C375.691 479.438 379.078 481.531 382.58 481.243L382.498 480.246C379.44 480.498 376.483 478.669 375.431 475.636L374.486 475.963ZM379.356 465.907C375.237 467.341 373.057 471.843 374.486 475.963L375.431 475.636C374.183 472.037 376.087 468.104 379.685 466.851L379.356 465.907ZM382.375 464.856L379.356 465.907L379.685 466.851L382.704 465.8L382.375 464.856ZM382.039 456.788V465.328H383.039V456.788H382.039ZM374.117 451.943C375.371 455.558 378.948 457.702 382.596 457.285L382.482 456.291C379.29 456.656 376.159 454.779 375.062 451.615L374.117 451.943ZM379.068 441.72C374.881 443.178 372.665 447.754 374.117 451.943L375.062 451.615C373.79 447.948 375.731 443.941 379.397 442.665L379.068 441.72ZM382.375 440.569L379.068 441.72L379.397 442.665L382.704 441.514L382.375 440.569ZM382.039 345.42V441.041H383.039V345.42H382.039ZM357.539 320.92C371.07 320.92 382.039 331.889 382.039 345.42H383.039C383.039 331.337 371.622 319.92 357.539 319.92V320.92ZM294.35 320.92H357.539V319.92H294.35V320.92Z" fill="#002445"/>
<path d="M397.926 202.53C390.426 206.148 379.639 198.356 376.399 194.182C376.862 187.804 378.413 176.789 380.913 183.746C384.037 192.442 389.94 195.225 393.065 193.486C396.19 191.747 392.865 186.017 392.37 181.311C391.676 174.702 391.268 168.469 394.454 160.093C397.231 152.788 406.249 135.716 409.383 128.09C411.814 122.177 409.383 109.655 407.3 97.1318C405.926 88.8684 397.578 76.9565 397.231 75.9129C396.954 75.0781 392.255 70.6952 389.94 68.6081L347.234 31.3882L343.068 27.9099C340.985 25.475 339.874 24.0836 340.29 21.9963C340.582 20.5267 341.679 18.518 342.721 17.4745C347.003 12.6046 353.519 4.66344 354.179 3.90834C356.609 1.12555 360.081 -0.265854 362.511 2.51677C363.742 3.92665 363.9 6.34311 362.164 8.77823C360.429 11.2133 356.956 15.3874 356.956 15.3874L351.4 21.9963L412.161 75.9129C419.684 67.9124 432.3 54.3456 436.118 50.5199C437.507 49.1286 440.235 48.4753 442.021 50.5199C444.452 53.3029 441.675 56.7815 440.98 57.4771C440.98 57.4771 440.12 58.5207 438.896 59.9119C431.142 68.7241 417.161 83.218 416.328 84.6094C413.619 89.1316 416.712 94.0015 417.716 103.393C418.758 113.133 420.494 124.612 418.411 128.786C413.5 138.625 405.217 154.527 402.439 163.919C400.217 171.432 401.629 181.427 403.134 187.573C404.241 192.095 405.425 198.913 397.926 202.53Z" fill="#002445"/>
<path d="M376.399 194.182L375.9 194.145L375.886 194.337L376.004 194.488L376.399 194.182ZM397.926 202.53L397.708 202.08L397.926 202.53ZM403.134 187.573L403.619 187.454L403.134 187.573ZM402.439 163.919L402.919 164.061L402.439 163.919ZM418.411 128.786L417.963 128.563L418.411 128.786ZM417.716 103.393L418.214 103.34L417.716 103.393ZM416.328 84.6094L415.899 84.3525L416.328 84.6094ZM438.896 59.9119L438.521 59.5816L438.896 59.9119ZM440.98 57.4771L440.626 57.1237L440.609 57.1407L440.594 57.1592L440.98 57.4771ZM442.021 50.5199L442.398 50.191H442.398L442.021 50.5199ZM436.118 50.5199L435.764 50.1667H435.764L436.118 50.5199ZM412.161 75.9129L411.829 76.2869C412.032 76.4665 412.34 76.4525 412.525 76.2555L412.161 75.9129ZM351.4 21.9963L351.017 21.6746C350.843 21.882 350.866 22.1905 351.068 22.3703L351.4 21.9963ZM356.956 15.3874L357.339 15.7091L357.341 15.7072L356.956 15.3874ZM362.164 8.77823L361.757 8.48805L362.164 8.77823ZM362.511 2.51677L362.134 2.84563L362.511 2.51677ZM354.179 3.90834L353.802 3.57944H353.802L354.179 3.90834ZM342.721 17.4745L343.075 17.8277L343.086 17.8165L343.096 17.8046L342.721 17.4745ZM340.29 21.9963L339.799 21.8986L340.29 21.9963ZM343.068 27.9099L342.688 28.235L342.715 28.2669L342.748 28.2937L343.068 27.9099ZM347.234 31.3882L347.562 31.0112L347.554 31.0044L347.234 31.3882ZM389.94 68.6081L390.275 68.2367L390.268 68.2312L389.94 68.6081ZM397.231 75.9129L396.757 76.0708L397.231 75.9129ZM407.3 97.1318L407.793 97.0497L407.3 97.1318ZM409.383 128.09L408.921 127.9L409.383 128.09ZM394.454 160.093L394.921 160.27L394.454 160.093ZM392.37 181.311L392.868 181.259L392.37 181.311ZM380.913 183.746L381.383 183.577L380.913 183.746ZM376.004 194.488C377.676 196.642 381.245 199.679 385.342 201.725C389.424 203.764 394.179 204.892 398.143 202.981L397.708 202.08C394.172 203.786 389.785 202.827 385.789 200.831C381.807 198.842 378.362 195.895 376.794 193.875L376.004 194.488ZM398.143 202.981C402.038 201.102 403.717 198.359 404.249 195.482C404.773 192.645 404.174 189.718 403.619 187.454L402.648 187.692C403.201 189.95 403.747 192.692 403.266 195.3C402.791 197.867 401.313 200.341 397.708 202.08L398.143 202.981ZM403.619 187.454C402.119 181.327 400.736 171.441 402.919 164.061L401.96 163.777C399.698 171.423 401.139 181.527 402.648 187.692L403.619 187.454ZM402.919 164.061C405.68 154.724 413.932 138.879 418.858 129.01L417.963 128.563C413.068 138.371 404.754 154.33 401.96 163.777L402.919 164.061ZM418.858 129.01C419.425 127.875 419.712 126.293 419.827 124.459C419.943 122.613 419.887 120.458 419.734 118.144C419.43 113.522 418.733 108.192 418.214 103.34L417.219 103.446C417.742 108.334 418.434 113.614 418.737 118.21C418.888 120.505 418.941 122.611 418.829 124.396C418.716 126.192 418.439 127.611 417.963 128.563L418.858 129.01ZM418.214 103.34C417.709 98.6208 416.67 94.9827 416.121 92.0822C415.566 89.1527 415.501 86.9625 416.757 84.8663L415.899 84.3525C414.446 86.7785 414.573 89.2843 415.138 92.2683C415.709 95.2812 416.719 98.7739 417.219 103.446L418.214 103.34ZM416.757 84.8663C416.833 84.7393 417.107 84.3983 417.595 83.8389C418.068 83.2967 418.71 82.5854 419.484 81.7402C421.031 80.0502 423.097 77.8345 425.382 75.3844C429.949 70.4874 435.388 64.6549 439.271 60.2422L438.521 59.5816C434.649 63.981 429.221 69.8016 424.651 74.7024C422.367 77.1512 420.297 79.3707 418.746 81.065C417.971 81.9119 417.323 82.6301 416.842 83.1813C416.376 83.7152 416.031 84.1316 415.899 84.3525L416.757 84.8663ZM439.271 60.2422C439.886 59.5437 440.409 58.9325 440.779 58.4958C440.963 58.2774 441.11 58.1026 441.21 57.9822C441.261 57.922 441.299 57.8754 441.325 57.8437C441.339 57.8279 441.349 57.8158 441.355 57.8077C441.359 57.8036 441.361 57.8005 441.363 57.7984C441.364 57.7973 441.365 57.7965 441.365 57.7959C441.365 57.7957 441.365 57.7955 441.365 57.7953C441.366 57.7952 441.366 57.7952 441.366 57.7951C441.366 57.7951 441.366 57.7951 441.366 57.7951C441.366 57.7951 441.366 57.795 440.98 57.4771C440.594 57.1592 440.594 57.1592 440.594 57.1592C440.594 57.1592 440.594 57.1592 440.594 57.1592C440.594 57.1592 440.594 57.1593 440.594 57.1593C440.594 57.1594 440.594 57.1596 440.593 57.1598C440.593 57.1603 440.592 57.161 440.592 57.162C440.59 57.1639 440.588 57.1668 440.584 57.1707C440.578 57.1785 440.568 57.1902 440.555 57.2056C440.53 57.2365 440.492 57.2823 440.442 57.3417C440.343 57.4604 440.198 57.6334 440.015 57.8498C439.649 58.2827 439.13 58.8889 438.521 59.5816L439.271 60.2422ZM441.334 57.8305C441.715 57.4482 442.633 56.3452 443.142 54.9531C443.657 53.5451 443.774 51.7669 442.398 50.191L441.645 50.8489C442.699 52.056 442.643 53.4086 442.203 54.6095C441.758 55.8264 440.939 56.8104 440.626 57.1237L441.334 57.8305ZM442.398 50.191C441.392 49.0393 440.104 48.6404 438.883 48.7329C437.679 48.824 436.539 49.3904 435.764 50.1667L436.472 50.8732C437.086 50.2581 438.005 49.8022 438.959 49.73C439.895 49.6591 440.865 49.9559 441.645 50.8489L442.398 50.191ZM435.764 50.1667C431.939 53.9994 419.312 67.578 411.797 75.5704L412.525 76.2555C420.056 68.2469 432.661 54.6918 436.472 50.8732L435.764 50.1667ZM412.493 75.539L351.732 21.6223L351.068 22.3703L411.829 76.2869L412.493 75.539ZM351.783 22.3181L357.339 15.7091L356.573 15.0656L351.017 21.6746L351.783 22.3181ZM356.956 15.3874C357.341 15.7072 357.341 15.7071 357.341 15.7071C357.341 15.707 357.341 15.707 357.341 15.7069C357.341 15.7068 357.341 15.7066 357.341 15.7063C357.342 15.7058 357.342 15.705 357.343 15.704C357.345 15.7019 357.347 15.6989 357.351 15.6949C357.357 15.6868 357.367 15.6748 357.38 15.6592C357.406 15.6278 357.445 15.5816 357.494 15.522C357.593 15.4027 357.736 15.2297 357.912 15.0145C358.266 14.5842 358.755 13.985 359.299 13.3095C360.384 11.9612 361.694 10.299 362.571 9.06841L361.757 8.48805C360.899 9.6926 359.605 11.3349 358.52 12.6824C357.979 13.3548 357.491 13.9513 357.14 14.3798C356.964 14.5939 356.822 14.7661 356.724 14.8846C356.675 14.9438 356.637 14.9896 356.611 15.0206C356.598 15.0361 356.588 15.0479 356.582 15.0558C356.578 15.0597 356.576 15.0627 356.574 15.0647C356.573 15.0656 356.573 15.0664 356.572 15.0669C356.572 15.0671 356.572 15.0673 356.572 15.0674C356.572 15.0675 356.572 15.0675 356.572 15.0675C356.572 15.0676 356.572 15.0676 356.956 15.3874ZM362.571 9.06841C364.405 6.49608 364.309 3.81557 362.887 2.18791L362.134 2.84563C363.175 4.03773 363.395 6.19014 361.757 8.48805L362.571 9.06841ZM362.887 2.18791C361.545 0.650208 359.877 0.25058 358.23 0.63887C356.619 1.0186 355.059 2.14011 353.802 3.57944L354.555 4.23724C355.728 2.89378 357.119 1.92819 358.46 1.61218C359.764 1.30472 361.047 1.60071 362.134 2.84563L362.887 2.18791ZM353.802 3.57944C353.468 3.9623 351.664 6.14761 349.425 8.82773C347.178 11.5159 344.482 14.7144 342.345 17.1443L343.096 17.8046C345.242 15.3646 347.945 12.1576 350.192 9.46898C352.446 6.77228 354.23 4.60948 354.555 4.23724L353.802 3.57944ZM342.367 17.1212C341.802 17.6873 341.24 18.4939 340.784 19.338C340.329 20.1817 339.958 21.0994 339.799 21.8986L340.78 22.094C340.914 21.4236 341.238 20.6022 341.664 19.8133C342.09 19.0247 342.598 18.3051 343.075 17.8277L342.367 17.1212ZM339.799 21.8986C339.566 23.0699 339.767 24.0565 340.3 25.0577C340.817 26.0287 341.656 27.0283 342.688 28.235L343.448 27.5849C342.397 26.3566 341.638 25.4431 341.183 24.5878C340.744 23.7628 340.598 23.01 340.78 22.094L339.799 21.8986ZM342.748 28.2937L346.913 31.772L347.554 31.0044L343.388 27.5261L342.748 28.2937ZM346.905 31.7652L389.611 68.985L390.268 68.2312L347.562 31.0113L346.905 31.7652ZM389.605 68.9794C390.759 70.0203 392.508 71.6331 394 73.0882C394.747 73.8163 395.426 74.5003 395.932 75.0513C396.186 75.3273 396.391 75.5642 396.539 75.7532C396.614 75.8478 396.669 75.9252 396.708 75.9859C396.75 76.0519 396.759 76.0771 396.757 76.0708L397.706 75.7551C397.64 75.558 397.483 75.3358 397.327 75.1367C397.156 74.9181 396.93 74.6593 396.668 74.3744C396.144 73.8036 395.45 73.1049 394.698 72.3721C393.194 70.9052 391.435 69.283 390.275 68.2368L389.605 68.9794ZM396.757 76.0708C396.795 76.1851 396.87 76.3301 396.948 76.4732C397.033 76.6279 397.145 76.8195 397.278 77.042C397.544 77.4867 397.907 78.0741 398.331 78.7677C399.183 80.1588 400.298 81.9967 401.443 84.0579C403.744 88.1972 406.135 93.175 406.807 97.2138L407.793 97.0497C407.091 92.8252 404.621 87.7153 402.317 83.572C401.161 81.4919 400.038 79.6396 399.184 78.2455C398.756 77.5465 398.399 76.9675 398.136 76.5288C398.005 76.3095 397.901 76.1302 397.825 75.9917C397.787 75.9224 397.757 75.8666 397.736 75.8232C397.726 75.8016 397.718 75.7848 397.713 75.7722C397.707 75.759 397.705 75.7539 397.706 75.7551L396.757 76.0708ZM406.807 97.2138C407.851 103.487 408.975 109.726 409.537 115.141C410.102 120.582 410.083 125.073 408.921 127.9L409.846 128.28C411.114 125.194 411.095 120.467 410.532 115.038C409.966 109.583 408.833 103.299 407.793 97.0497L406.807 97.2138ZM408.921 127.9C407.362 131.694 404.334 137.849 401.336 143.992C398.347 150.118 395.385 156.236 393.986 159.915L394.921 160.27C396.3 156.644 399.236 150.575 402.234 144.431C405.223 138.306 408.271 132.112 409.846 128.28L408.921 127.9ZM393.986 159.915C390.759 168.402 391.176 174.73 391.873 181.364L392.868 181.259C392.176 174.675 391.778 168.536 394.921 160.27L393.986 159.915ZM391.873 181.364C392.001 182.582 392.311 183.855 392.644 185.085C392.982 186.33 393.339 187.516 393.587 188.621C393.835 189.727 393.956 190.68 393.849 191.442C393.746 192.176 393.439 192.706 392.822 193.049L393.308 193.923C394.253 193.397 394.702 192.558 394.839 191.581C394.972 190.633 394.817 189.533 394.563 188.402C394.308 187.268 393.937 186.03 393.609 184.823C393.278 183.601 392.987 182.393 392.868 181.259L391.873 181.364ZM392.822 193.049C391.486 193.792 389.44 193.621 387.274 192.119C385.121 190.625 382.919 187.851 381.383 183.577L380.442 183.915C382.031 188.338 384.343 191.303 386.704 192.94C389.051 194.568 391.518 194.919 393.308 193.923L392.822 193.049ZM381.383 183.577C381.065 182.692 380.745 182.04 380.41 181.623C380.079 181.21 379.618 180.9 379.072 181.067C378.613 181.207 378.295 181.643 378.066 182.075C377.821 182.538 377.604 183.143 377.411 183.828C376.638 186.561 376.132 190.953 375.9 194.145L376.897 194.218C377.129 191.033 377.63 186.729 378.373 184.1C378.558 183.444 378.753 182.916 378.95 182.543C379.163 182.14 379.319 182.037 379.364 182.023C379.365 182.023 379.366 182.022 379.367 182.022C379.368 182.022 379.368 182.022 379.368 182.022C379.368 182.022 379.368 182.022 379.368 182.022C379.367 182.022 379.367 182.022 379.368 182.022C379.368 182.022 379.37 182.022 379.373 182.023C379.377 182.025 379.384 182.027 379.394 182.031C379.435 182.051 379.516 182.107 379.63 182.249C379.86 182.535 380.135 183.061 380.442 183.915L381.383 183.577Z" fill="#002445"/>
<rect x="7.05433" y="4.71012" width="40.4728" height="29.2624" rx="14.6312" transform="matrix(-0.98065 0.195769 -0.195072 -0.980789 300.402 201.366)" stroke="#002445" stroke-width="12"/>
<rect x="7.63243" y="3.6964" width="34.505" height="25.0417" rx="12.5209" transform="matrix(-0.944423 0.328734 -0.327648 -0.9448 295.48 170.718)" stroke="#002445" stroke-width="12"/>
<rect x="7.63257" y="3.6961" width="35.1497" height="25.8806" rx="12.9403" transform="matrix(-0.94441 0.328771 -0.327685 -0.944787 295.429 147.614)" stroke="#002445" stroke-width="12"/>
<rect x="7.1712" y="4.52952" width="34.811" height="22.4459" rx="11.223" transform="matrix(-0.975361 0.220616 -0.219839 -0.975536 294.155 128.155)" stroke="#002445" stroke-width="12"/>
<path d="M373.622 30.3443C371.539 32.7793 403.714 59.5637 419.454 72.4341L424.314 66.8685C407.88 53.9981 375.706 27.9094 373.622 30.3443Z" fill="#002445" stroke="#002445"/>
<path d="M413.55 44.6066C412.311 46.3442 422.079 54.7933 430.91 61.999L434.035 58.1874C424.814 50.9817 415.286 42.1716 413.55 44.6066Z" fill="#002445" stroke="#002445"/>
<path d="M359.386 97.4798C361.817 112.785 373.622 123.221 385.427 132.96C379.871 126.003 367.928 108.82 364.594 95.7406C361.261 82.6614 363.206 74.5218 364.594 72.0868C362.511 75.5653 356.871 81.6391 359.386 97.4798Z" fill="#002445" stroke="#002445"/>
<path fill-rule="evenodd" clip-rule="evenodd" d="M357.648 291.578C371.455 291.578 382.648 280.385 382.648 266.578V149.231L388.364 140.378C379.014 140.947 366.385 130.735 357.988 114.973C353.672 106.871 351.193 98.6551 350.575 91.5688L350.643 91.5653C350.665 91.3245 350.684 91.0797 350.701 90.8313C347.126 92.4028 342.951 93.3051 338.491 93.3051C325.26 93.3051 310.368 84.6089 311.757 74.5212C313.481 61.9987 322.52 55.7374 337.45 56.7809C342.66 56.7809 347.643 58.1742 351.77 60.4616C354.797 61.7057 360.384 63.4367 362.448 63.7374C361.818 62.9273 360.908 62.1699 359.863 61.2999C357.091 58.9912 353.367 55.8904 351.379 48.9126C350.536 45.9523 352.018 41.7228 353.184 38.3931C353.554 37.3353 353.893 36.3683 354.115 35.5616L347.519 29.996L337.797 41.1272C333.18 41.1272 327.381 41.8389 320.955 45.0521C308.702 51.1794 289.411 64.6253 282.024 94.5239C275.752 98.1268 271.191 104.371 269.859 111.739L270.769 111.491C273.825 110.66 276.974 112.464 277.802 115.521C278.63 118.578 276.824 121.73 273.768 122.561L269.459 123.732V131.254C272.739 130.983 275.911 132.944 277.04 136.199C278.379 140.058 276.336 144.276 272.478 145.619L269.459 146.67V155.209C272.88 154.818 276.233 156.829 277.409 160.219C278.771 164.147 276.692 168.439 272.766 169.805L269.459 170.956V266.578C269.459 280.385 280.652 291.578 294.459 291.578H357.648Z" fill="#002445"/>
<path d="M382.648 149.231L382.228 148.96L382.148 149.084V149.231H382.648ZM388.364 140.378L388.784 140.649L389.32 139.819L388.334 139.879L388.364 140.378ZM357.988 114.973L358.429 114.738L357.988 114.973ZM350.575 91.5688L350.549 91.0694L350.031 91.0956L350.076 91.6123L350.575 91.5688ZM350.643 91.5653L350.669 92.0647L351.103 92.0427L351.141 91.6089L350.643 91.5653ZM350.701 90.8313L351.2 90.8668L351.259 90.0401L350.5 90.3736L350.701 90.8313ZM311.757 74.5212L311.261 74.453L311.757 74.5212ZM337.45 56.7809L337.415 57.2797L337.432 57.2809H337.45V56.7809ZM351.77 60.4616L351.527 60.8989L351.553 60.913L351.58 60.9241L351.77 60.4616ZM362.448 63.7374L362.376 64.2321L363.607 64.4114L362.843 63.4302L362.448 63.7374ZM359.863 61.2999L360.183 60.9157H360.183L359.863 61.2999ZM351.379 48.9126L351.86 48.7757H351.86L351.379 48.9126ZM353.184 38.3931L353.656 38.5584L353.184 38.3931ZM354.115 35.5616L354.597 35.6944L354.683 35.3858L354.438 35.1794L354.115 35.5616ZM347.519 29.996L347.841 29.6138L347.465 29.2969L347.142 29.6671L347.519 29.996ZM337.797 41.1272V41.6272H338.024L338.173 41.4561L337.797 41.1272ZM320.955 45.0521L321.179 45.4993L320.955 45.0521ZM282.024 94.5239L282.273 94.9574L282.458 94.8511L282.509 94.6438L282.024 94.5239ZM269.859 111.739L269.367 111.65L269.226 112.429L269.99 112.221L269.859 111.739ZM270.769 111.491L270.638 111.009L270.769 111.491ZM277.802 115.521L277.319 115.652L277.802 115.521ZM273.768 122.561L273.9 123.043L273.768 122.561ZM269.459 123.732L269.328 123.25L268.959 123.35V123.732H269.459ZM269.459 131.254H268.959V131.796L269.5 131.752L269.459 131.254ZM277.04 136.199L277.512 136.035L277.04 136.199ZM272.478 145.619L272.314 145.147L272.478 145.619ZM269.459 146.67L269.295 146.198L268.959 146.315V146.67H269.459ZM269.459 155.209H268.959V155.77L269.516 155.706L269.459 155.209ZM277.409 160.219L277.881 160.055L277.409 160.219ZM272.766 169.805L272.93 170.277L272.766 169.805ZM269.459 170.956L269.295 170.484L268.959 170.601V170.956H269.459ZM382.148 266.578C382.148 280.109 371.179 291.078 357.648 291.078V292.078C371.731 292.078 383.148 280.661 383.148 266.578H382.148ZM382.148 149.231V266.578H383.148V149.231H382.148ZM387.944 140.107L382.228 148.96L383.068 149.503L388.784 140.649L387.944 140.107ZM357.547 115.208C361.772 123.138 367.067 129.685 372.5 134.184C377.919 138.673 383.537 141.172 388.395 140.877L388.334 139.879C383.842 140.152 378.47 137.83 373.138 133.414C367.819 129.009 362.602 122.569 358.429 114.738L357.547 115.208ZM350.076 91.6123C350.702 98.7753 353.204 107.056 357.547 115.208L358.429 114.738C354.14 106.686 351.685 98.5348 351.073 91.5253L350.076 91.6123ZM350.618 91.0659L350.549 91.0694L350.6 92.0681L350.669 92.0647L350.618 91.0659ZM350.203 90.7959C350.185 91.0417 350.166 91.2837 350.145 91.5217L351.141 91.6089C351.163 91.3652 351.182 91.1178 351.2 90.8668L350.203 90.7959ZM350.5 90.3736C346.991 91.9162 342.884 92.8051 338.491 92.8051V93.8051C343.018 93.8051 347.261 92.8895 350.903 91.2891L350.5 90.3736ZM338.491 92.8051C331.974 92.8051 325.039 90.66 319.917 87.2787C314.775 83.884 311.597 79.3476 312.252 74.5894L311.261 74.453C310.528 79.7825 314.102 84.638 319.366 88.1133C324.651 91.6021 331.778 93.8051 338.491 93.8051V92.8051ZM312.252 74.5894C313.099 68.4406 315.729 63.8816 319.935 60.9751C324.153 58.0604 330.02 56.7628 337.415 57.2797L337.485 56.2822C329.95 55.7555 323.832 57.0668 319.367 60.1525C314.89 63.2464 312.139 68.0793 311.261 74.453L312.252 74.5894ZM337.45 57.2809C342.572 57.2809 347.472 58.6512 351.527 60.8989L352.012 60.0243C347.813 57.6971 342.747 56.2809 337.45 56.2809V57.2809ZM362.52 63.2426C361.531 63.0984 359.651 62.6015 357.617 61.9754C355.592 61.3521 353.454 60.6133 351.96 59.9991L351.58 60.9241C353.112 61.554 355.282 62.3028 357.323 62.9311C359.355 63.5567 361.302 64.0756 362.376 64.2321L362.52 63.2426ZM359.543 61.6842C360.601 62.5648 361.463 63.286 362.054 64.0446L362.843 63.4302C362.172 62.5687 361.215 61.7749 360.183 60.9157L359.543 61.6842ZM350.898 49.0496C352.928 56.1759 356.749 59.3574 359.543 61.6842L360.183 60.9157C357.432 58.6251 353.805 55.6049 351.86 48.7757L350.898 49.0496ZM352.712 38.2278C352.131 39.8876 351.458 41.8053 351.04 43.6826C350.624 45.5509 350.442 47.4478 350.898 49.0496L351.86 48.7757C351.473 47.4171 351.611 45.7191 352.016 43.9001C352.419 42.0902 353.071 40.2283 353.656 38.5584L352.712 38.2278ZM353.633 35.4288C353.417 36.2155 353.084 37.1646 352.712 38.2278L353.656 38.5584C354.024 37.506 354.37 36.5211 354.597 35.6944L353.633 35.4288ZM347.196 30.3782L353.793 35.9437L354.438 35.1794L347.841 29.6138L347.196 30.3782ZM338.173 41.4561L347.895 30.3249L347.142 29.6671L337.42 40.7983L338.173 41.4561ZM321.179 45.4993C327.518 42.3294 333.235 41.6272 337.797 41.6272V40.6272C333.124 40.6272 327.244 41.3484 320.732 44.6049L321.179 45.4993ZM282.509 94.6438C289.85 64.9346 309.006 51.5866 321.179 45.4993L320.732 44.6049C308.399 50.7722 288.973 64.3159 281.538 94.4039L282.509 94.6438ZM270.351 111.828C271.656 104.609 276.126 98.4888 282.273 94.9574L281.775 94.0903C275.379 97.7648 270.726 104.133 269.367 111.65L270.351 111.828ZM270.638 111.009L269.728 111.256L269.99 112.221L270.9 111.974L270.638 111.009ZM278.285 115.39C277.384 112.067 273.961 110.105 270.638 111.009L270.9 111.974C273.69 111.215 276.564 112.862 277.319 115.652L278.285 115.39ZM273.9 123.043C277.222 122.14 279.185 118.713 278.285 115.39L277.319 115.652C278.076 118.442 276.427 121.319 273.637 122.078L273.9 123.043ZM269.59 124.215L273.9 123.043L273.637 122.078L269.328 123.25L269.59 124.215ZM269.959 131.254V123.732H268.959V131.254H269.959ZM277.512 136.035C276.307 132.56 272.92 130.467 269.418 130.755L269.5 131.752C272.558 131.5 275.515 133.329 276.568 136.362L277.512 136.035ZM272.642 146.091C276.761 144.657 278.941 140.155 277.512 136.035L276.568 136.362C277.816 139.961 275.911 143.894 272.314 145.147L272.642 146.091ZM269.624 147.142L272.642 146.091L272.314 145.147L269.295 146.198L269.624 147.142ZM269.959 155.209V146.67H268.959V155.209H269.959ZM277.881 160.055C276.627 156.439 273.05 154.296 269.402 154.713L269.516 155.706C272.709 155.341 275.839 157.219 276.936 160.383L277.881 160.055ZM272.93 170.277C277.117 168.82 279.334 164.243 277.881 160.055L276.936 160.383C278.208 164.05 276.267 168.057 272.602 169.333L272.93 170.277ZM269.624 171.428L272.93 170.277L272.602 169.333L269.295 170.484L269.624 171.428ZM269.959 266.578V170.956H268.959V266.578H269.959ZM294.459 291.078C280.928 291.078 269.959 280.109 269.959 266.578H268.959C268.959 280.661 280.376 292.078 294.459 292.078V291.078ZM357.648 291.078H294.459V292.078H357.648V291.078Z" fill="#002445"/>
<g filter="url(#filter0_d_797_1231)">
<path d="M292.737 285.954C307.018 284.136 320.574 280.659 318.19 236.593C315.806 192.527 319.166 274.864 334.387 285.954C314.957 296.629 314.996 316.718 318.188 356.554L318.116 355.658C313.772 301.441 313.19 294.176 292.737 285.954Z" fill="#FAC748" stroke="#FAC748" stroke-width="3"/>
<path d="M327.843 343.481C334.983 342.577 341.761 340.847 340.569 318.934C339.377 297.02 341.057 337.965 348.668 343.481C338.952 348.789 338.972 358.779 340.568 378.59L340.532 378.144C338.36 351.182 338.069 347.569 327.843 343.481Z" fill="#FAC748" stroke="#FAC748" stroke-width="3"/>
<path fill-rule="evenodd" clip-rule="evenodd" d="M293.413 332.18C291.063 347.275 294.055 359.477 302.383 365.751C310.711 372.025 323.243 371.518 337.066 365.067C350.836 358.64 365.577 346.432 377.964 329.93C390.35 313.428 397.964 295.851 400.304 280.813C402.654 265.718 399.662 253.516 391.334 247.242C383.006 240.968 370.474 241.475 356.651 247.927C342.881 254.354 328.14 266.561 315.754 283.063C303.367 299.565 295.753 317.143 293.413 332.18ZM291.042 331.809C293.455 316.31 301.261 298.372 313.836 281.619C326.411 264.865 341.445 252.372 355.638 245.748C369.778 239.148 383.395 238.254 392.776 245.321C402.156 252.388 405.078 265.742 402.675 281.184C400.262 296.683 392.456 314.621 379.881 331.375C367.306 348.128 352.272 360.621 338.079 367.245C323.939 373.845 310.322 374.739 300.941 367.672C291.561 360.605 288.639 347.251 291.042 331.809Z" fill="#FAC748"/>
<path fill-rule="evenodd" clip-rule="evenodd" d="M268.79 290.529C258.13 301.453 253.495 313.129 256.64 323.081C259.785 333.033 270.283 339.909 285.277 342.695C300.213 345.471 319.29 344.105 338.937 337.873C358.585 331.64 374.97 321.757 385.589 310.874C396.249 299.95 400.884 288.274 397.739 278.322C394.593 268.37 384.095 261.494 369.102 258.707C354.166 255.931 335.089 257.297 315.441 263.53C295.794 269.763 279.409 279.646 268.79 290.529ZM267.074 288.848C278.02 277.632 294.77 267.566 314.717 261.239C334.664 254.911 354.145 253.483 369.54 256.344C384.877 259.194 396.483 266.386 400.026 277.596C403.569 288.806 398.209 301.379 387.305 312.554C376.359 323.771 359.609 333.836 339.662 340.164C319.714 346.492 300.234 347.92 284.839 345.059C269.502 342.208 257.896 335.016 254.353 323.807C250.81 312.597 256.169 300.023 267.074 288.848Z" fill="#FAC748"/>
</g>
<path d="M355.082 211.71C355.174 213.016 356.018 216.635 357.56 218.425C359.102 220.216 361.965 220.477 363.342 220.663C361.873 220.943 358.882 221.838 357.56 223.181C356.262 224.5 355.301 227.725 355.093 229.254C355.09 229.282 355.086 229.31 355.082 229.336C355.086 229.31 355.089 229.282 355.093 229.254C355.23 227.996 354.423 225.151 352.054 223.181C349.631 221.167 347.557 220.663 346.548 220.663C347.741 220.477 350.512 219.768 352.054 218.425C353.596 217.082 354.715 213.389 355.082 211.71Z" fill="#FAC748"/>
<path d="M298.657 190.079C298.719 190.969 299.281 193.436 300.309 194.657C301.337 195.878 303.246 196.056 304.164 196.183C303.185 196.374 301.19 196.984 300.309 197.9C299.444 198.799 298.803 200.998 298.665 202.04C298.662 202.059 298.66 202.078 298.657 202.096C298.66 202.078 298.662 202.059 298.665 202.04C298.756 201.182 298.218 199.243 296.639 197.9C295.023 196.526 293.641 196.183 292.968 196.183C293.763 196.056 295.611 195.572 296.639 194.657C297.666 193.741 298.413 191.223 298.657 190.079Z" fill="#FAC748"/>
<path d="M303.902 375.151C303.993 376.457 304.838 380.075 306.379 381.866C307.921 383.657 310.784 383.918 312.161 384.104C310.693 384.384 307.701 385.279 306.379 386.622C305.082 387.941 304.12 391.166 303.912 392.695C303.909 392.723 303.906 392.751 303.902 392.777C303.905 392.75 303.909 392.723 303.912 392.695C304.05 391.437 303.243 388.592 300.873 386.622C298.451 384.608 296.377 384.104 295.367 384.104C296.56 383.918 299.332 383.209 300.873 381.866C302.415 380.523 303.535 376.83 303.902 375.151Z" fill="#FAC748"/>
<path d="M366.213 359.128C366.261 359.781 366.703 361.59 367.511 362.485C368.318 363.381 369.818 363.511 370.539 363.604C369.77 363.744 368.203 364.192 367.511 364.863C366.831 365.523 366.327 367.135 366.218 367.9C366.217 367.914 366.215 367.928 366.213 367.941C366.214 367.927 366.216 367.914 366.218 367.9C366.29 367.271 365.867 365.848 364.626 364.863C363.357 363.856 362.271 363.604 361.742 363.604C362.367 363.511 363.819 363.157 364.626 362.485C365.434 361.814 366.02 359.967 366.213 359.128Z" fill="#FAC748"/>
<path d="M333.831 403.994C333.883 404.766 334.366 406.904 335.247 407.962C336.128 409.02 337.764 409.174 338.55 409.284C337.711 409.45 336.002 409.979 335.247 410.772C334.505 411.552 333.956 413.457 333.837 414.361C333.835 414.378 333.833 414.394 333.831 414.41C333.833 414.394 333.835 414.377 333.837 414.361C333.916 413.617 333.454 411.937 332.1 410.772C330.716 409.582 329.531 409.284 328.954 409.284C329.636 409.174 331.219 408.755 332.1 407.962C332.981 407.168 333.621 404.986 333.831 403.994Z" fill="#FAC748"/>
<g filter="url(#filter1_d_797_1231)">
<path d="M20.8436 283C20.6383 283 20.4703 282.935 20.3396 282.804C20.2089 282.673 20.1436 282.505 20.1436 282.3V264.1C20.1436 263.895 20.2089 263.727 20.3396 263.596C20.4703 263.465 20.6383 263.4 20.8436 263.4H24.4556C24.6609 263.4 24.8289 263.465 24.9596 263.596C25.0903 263.727 25.1556 263.895 25.1556 264.1V270.848H32.0716V264.1C32.0716 263.895 32.1369 263.727 32.2676 263.596C32.3983 263.465 32.5663 263.4 32.7716 263.4H36.3836C36.5889 263.4 36.7569 263.465 36.8876 263.596C37.0183 263.727 37.0836 263.895 37.0836 264.1V282.3C37.0836 282.505 37.0183 282.673 36.8876 282.804C36.7569 282.935 36.5889 283 36.3836 283H32.7716C32.5663 283 32.3983 282.935 32.2676 282.804C32.1369 282.673 32.0716 282.505 32.0716 282.3V275.328H25.1556V282.3C25.1556 282.505 25.0903 282.673 24.9596 282.804C24.8289 282.935 24.6609 283 24.4556 283H20.8436ZM45.0669 283.28C44.0589 283.28 43.1535 283.093 42.3509 282.72C41.5669 282.328 40.9415 281.805 40.4749 281.152C40.0082 280.499 39.7749 279.761 39.7749 278.94C39.7749 277.615 40.3162 276.569 41.3989 275.804C42.4815 275.02 43.9189 274.488 45.7109 274.208L49.2109 273.676V273.284C49.2109 272.612 49.0709 272.099 48.7909 271.744C48.5109 271.389 47.9975 271.212 47.2509 271.212C46.7282 271.212 46.2989 271.315 45.9629 271.52C45.6455 271.725 45.3935 272.005 45.2069 272.36C45.0389 272.603 44.8055 272.724 44.5069 272.724H41.3709C41.1655 272.724 41.0069 272.668 40.8949 272.556C40.7829 272.425 40.7362 272.276 40.7549 272.108C40.7549 271.772 40.8762 271.389 41.1189 270.96C41.3802 270.512 41.7722 270.073 42.2949 269.644C42.8175 269.215 43.4895 268.86 44.3109 268.58C45.1322 268.3 46.1215 268.16 47.2789 268.16C48.4922 268.16 49.5282 268.3 50.3869 268.58C51.2455 268.86 51.9362 269.252 52.4589 269.756C53.0002 270.26 53.4015 270.857 53.6629 271.548C53.9242 272.22 54.0549 272.967 54.0549 273.788V282.3C54.0549 282.505 53.9802 282.673 53.8309 282.804C53.7002 282.935 53.5415 283 53.3549 283H50.1069C49.9015 283 49.7335 282.935 49.6029 282.804C49.4722 282.673 49.4069 282.505 49.4069 282.3V281.32C49.1642 281.675 48.8375 282.001 48.4269 282.3C48.0162 282.599 47.5309 282.832 46.9709 283C46.4295 283.187 45.7949 283.28 45.0669 283.28ZM46.3829 280.088C46.9242 280.088 47.4095 279.976 47.8389 279.752C48.2869 279.509 48.6322 279.145 48.8749 278.66C49.1362 278.156 49.2669 277.531 49.2669 276.784V276.392L46.8869 276.812C46.0095 276.961 45.3655 277.195 44.9549 277.512C44.5629 277.811 44.3669 278.165 44.3669 278.576C44.3669 278.893 44.4602 279.164 44.6469 279.388C44.8335 279.612 45.0762 279.789 45.3749 279.92C45.6735 280.032 46.0095 280.088 46.3829 280.088ZM57.8865 283C57.6998 283 57.5412 282.935 57.4105 282.804C57.2798 282.673 57.2145 282.515 57.2145 282.328V269.14C57.2145 268.935 57.2798 268.767 57.4105 268.636C57.5412 268.505 57.7092 268.44 57.9145 268.44H61.2185C61.4052 268.44 61.5638 268.505 61.6945 268.636C61.8438 268.767 61.9185 268.935 61.9185 269.14V279.36L60.6585 278.744L67.5745 268.888C67.6678 268.757 67.7798 268.655 67.9105 268.58C68.0412 268.487 68.1905 268.44 68.3585 268.44H71.3545C71.5412 268.44 71.6998 268.505 71.8305 268.636C71.9612 268.767 72.0265 268.925 72.0265 269.112V282.3C72.0265 282.505 71.9612 282.673 71.8305 282.804C71.6998 282.935 71.5318 283 71.3265 283H68.0225C67.8172 283 67.6492 282.935 67.5185 282.804C67.3878 282.673 67.3225 282.505 67.3225 282.3V272.388L68.6105 272.64L61.6385 282.552C61.5638 282.683 61.4612 282.795 61.3305 282.888C61.1998 282.963 61.0412 283 60.8545 283H57.8865ZM64.8305 266.536C63.6732 266.536 62.7305 266.359 62.0025 266.004C61.2745 265.649 60.7425 265.164 60.4065 264.548C60.0892 263.932 59.9305 263.26 59.9305 262.532C59.9305 262.383 59.9678 262.261 60.0425 262.168C60.1358 262.056 60.2758 262 60.4625 262H62.7025C62.8705 262 63.0012 262.056 63.0945 262.168C63.1878 262.261 63.2345 262.383 63.2345 262.532C63.2345 262.924 63.3372 263.269 63.5425 263.568C63.7665 263.867 64.1958 264.016 64.8305 264.016C65.4838 264.016 65.9132 263.867 66.1185 263.568C66.3425 263.269 66.4545 262.924 66.4545 262.532C66.4545 262.383 66.5012 262.261 66.5945 262.168C66.6878 262.056 66.8185 262 66.9865 262H69.2265C69.3945 262 69.5252 262.056 69.6185 262.168C69.7118 262.261 69.7585 262.383 69.7585 262.532C69.7585 263.26 69.5905 263.932 69.2545 264.548C68.9372 265.164 68.4145 265.649 67.6865 266.004C66.9585 266.359 66.0065 266.536 64.8305 266.536ZM74.762 286.08C74.5753 286.08 74.4073 286.015 74.258 285.884C74.1273 285.753 74.062 285.585 74.062 285.38V280.032C74.062 279.827 74.1273 279.659 74.258 279.528C74.4073 279.397 74.5753 279.332 74.762 279.332H75.042C75.5273 279.332 75.9006 279.089 76.162 278.604C76.442 278.119 76.6286 277.419 76.722 276.504C76.834 275.571 76.89 274.432 76.89 273.088V269.14C76.89 268.935 76.9553 268.767 77.086 268.636C77.2353 268.505 77.4033 268.44 77.59 268.44H88.594C88.7993 268.44 88.9673 268.505 89.098 268.636C89.2286 268.767 89.294 268.935 89.294 269.14V279.304H90.498C90.7033 279.304 90.8713 279.379 91.002 279.528C91.1326 279.659 91.198 279.817 91.198 280.004V285.38C91.198 285.585 91.1326 285.753 91.002 285.884C90.8713 286.015 90.7033 286.08 90.498 286.08H87.194C86.9886 286.08 86.8206 286.015 86.69 285.884C86.5593 285.753 86.494 285.585 86.494 285.38V283H78.794V285.38C78.794 285.585 78.7193 285.753 78.57 285.884C78.4393 286.015 78.2713 286.08 78.066 286.08H74.762ZM80.39 279.332L84.59 279.304V272.108H81.398V273.592C81.398 274.992 81.3046 276.168 81.118 277.12C80.95 278.053 80.7073 278.791 80.39 279.332ZM94.117 283C93.9303 283 93.7716 282.935 93.641 282.804C93.5103 282.673 93.445 282.515 93.445 282.328V269.14C93.445 268.935 93.5103 268.767 93.641 268.636C93.7716 268.505 93.9396 268.44 94.145 268.44H97.449C97.6356 268.44 97.7943 268.505 97.925 268.636C98.0743 268.767 98.149 268.935 98.149 269.14V279.36L96.889 278.744L103.805 268.888C103.898 268.757 104.01 268.655 104.141 268.58C104.272 268.487 104.421 268.44 104.589 268.44H107.585C107.772 268.44 107.93 268.505 108.061 268.636C108.192 268.767 108.257 268.925 108.257 269.112V282.3C108.257 282.505 108.192 282.673 108.061 282.804C107.93 282.935 107.762 283 107.557 283H104.253C104.048 283 103.88 282.935 103.749 282.804C103.618 282.673 103.553 282.505 103.553 282.3V272.388L104.841 272.64L97.869 282.552C97.7943 282.683 97.6916 282.795 97.561 282.888C97.4303 282.963 97.2716 283 97.085 283H94.117ZM121.657 283C121.471 283 121.303 282.935 121.153 282.804C121.023 282.673 120.957 282.505 120.957 282.3V272.108H116.701C116.515 272.108 116.347 272.043 116.197 271.912C116.067 271.781 116.001 271.613 116.001 271.408V269.14C116.001 268.935 116.067 268.767 116.197 268.636C116.347 268.505 116.515 268.44 116.701 268.44H129.861C130.048 268.44 130.207 268.505 130.337 268.636C130.487 268.767 130.561 268.935 130.561 269.14V271.408C130.561 271.613 130.487 271.781 130.337 271.912C130.207 272.043 130.048 272.108 129.861 272.108H125.605V282.3C125.605 282.505 125.54 282.673 125.409 282.804C125.279 282.935 125.111 283 124.905 283H121.657ZM139.489 283.28C137.921 283.28 136.596 283.028 135.513 282.524C134.449 282.02 133.628 281.301 133.049 280.368C132.489 279.416 132.172 278.287 132.097 276.98C132.079 276.607 132.069 276.187 132.069 275.72C132.069 275.235 132.079 274.815 132.097 274.46C132.172 273.135 132.508 272.005 133.105 271.072C133.703 270.139 134.533 269.42 135.597 268.916C136.68 268.412 137.977 268.16 139.489 268.16C141.02 268.16 142.317 268.412 143.381 268.916C144.464 269.42 145.304 270.139 145.901 271.072C146.499 272.005 146.835 273.135 146.909 274.46C146.928 274.815 146.937 275.235 146.937 275.72C146.937 276.187 146.928 276.607 146.909 276.98C146.835 278.287 146.508 279.416 145.929 280.368C145.369 281.301 144.548 282.02 143.465 282.524C142.401 283.028 141.076 283.28 139.489 283.28ZM139.489 279.864C140.329 279.864 140.936 279.612 141.309 279.108C141.701 278.604 141.925 277.848 141.981 276.84C142 276.56 142.009 276.187 142.009 275.72C142.009 275.253 142 274.88 141.981 274.6C141.925 273.611 141.701 272.864 141.309 272.36C140.936 271.837 140.329 271.576 139.489 271.576C138.668 271.576 138.061 271.837 137.669 272.36C137.277 272.864 137.063 273.611 137.025 274.6C137.007 274.88 136.997 275.253 136.997 275.72C136.997 276.187 137.007 276.56 137.025 276.84C137.063 277.848 137.277 278.604 137.669 279.108C138.061 279.612 138.668 279.864 139.489 279.864ZM150.391 283C150.186 283 150.018 282.935 149.887 282.804C149.756 282.673 149.691 282.505 149.691 282.3V269.14C149.691 268.935 149.756 268.767 149.887 268.636C150.018 268.505 150.186 268.44 150.391 268.44H159.743C159.93 268.44 160.088 268.505 160.219 268.636C160.368 268.767 160.443 268.935 160.443 269.14V271.408C160.443 271.613 160.368 271.781 160.219 271.912C160.088 272.043 159.93 272.108 159.743 272.108H154.395V282.3C154.395 282.505 154.32 282.673 154.171 282.804C154.04 282.935 153.882 283 153.695 283H150.391ZM169.212 283.28C167.644 283.28 166.319 283.028 165.236 282.524C164.172 282.02 163.351 281.301 162.772 280.368C162.212 279.416 161.895 278.287 161.82 276.98C161.801 276.607 161.792 276.187 161.792 275.72C161.792 275.235 161.801 274.815 161.82 274.46C161.895 273.135 162.231 272.005 162.828 271.072C163.425 270.139 164.256 269.42 165.32 268.916C166.403 268.412 167.7 268.16 169.212 268.16C170.743 268.16 172.04 268.412 173.104 268.916C174.187 269.42 175.027 270.139 175.624 271.072C176.221 272.005 176.557 273.135 176.632 274.46C176.651 274.815 176.66 275.235 176.66 275.72C176.66 276.187 176.651 276.607 176.632 276.98C176.557 278.287 176.231 279.416 175.652 280.368C175.092 281.301 174.271 282.02 173.188 282.524C172.124 283.028 170.799 283.28 169.212 283.28ZM169.212 279.864C170.052 279.864 170.659 279.612 171.032 279.108C171.424 278.604 171.648 277.848 171.704 276.84C171.723 276.56 171.732 276.187 171.732 275.72C171.732 275.253 171.723 274.88 171.704 274.6C171.648 273.611 171.424 272.864 171.032 272.36C170.659 271.837 170.052 271.576 169.212 271.576C168.391 271.576 167.784 271.837 167.392 272.36C167 272.864 166.785 273.611 166.748 274.6C166.729 274.88 166.72 275.253 166.72 275.72C166.72 276.187 166.729 276.56 166.748 276.84C166.785 277.848 167 278.604 167.392 279.108C167.784 279.612 168.391 279.864 169.212 279.864ZM179.108 285.1C178.959 285.1 178.828 285.035 178.716 284.904C178.604 284.792 178.558 284.652 178.576 284.484L179.444 278.996C179.482 278.753 179.575 278.539 179.724 278.352C179.892 278.147 180.135 278.044 180.452 278.044H183.728C183.878 278.044 183.999 278.1 184.092 278.212C184.204 278.324 184.26 278.445 184.26 278.576C184.26 278.688 184.242 278.8 184.204 278.912L182.076 284.316C182.002 284.503 181.89 284.68 181.74 284.848C181.591 285.016 181.367 285.1 181.068 285.1H179.108ZM193.758 283C193.553 283 193.385 282.935 193.254 282.804C193.124 282.673 193.058 282.505 193.058 282.3V269.14C193.058 268.935 193.124 268.767 193.254 268.636C193.385 268.505 193.553 268.44 193.758 268.44H196.978C197.184 268.44 197.352 268.505 197.482 268.636C197.613 268.767 197.678 268.935 197.678 269.14V273.788H199.19L202.242 268.888C202.298 268.795 202.392 268.701 202.522 268.608C202.653 268.496 202.821 268.44 203.026 268.44H206.61C206.778 268.44 206.918 268.496 207.03 268.608C207.161 268.701 207.226 268.832 207.226 269C207.226 269.056 207.208 269.121 207.17 269.196C207.152 269.271 207.124 269.336 207.086 269.392L203.25 275.496L207.73 282.076C207.805 282.188 207.842 282.309 207.842 282.44C207.842 282.608 207.786 282.748 207.674 282.86C207.562 282.953 207.413 283 207.226 283H203.278C203.073 283 202.905 282.963 202.774 282.888C202.662 282.795 202.56 282.683 202.466 282.552L199.134 277.456H197.678V282.3C197.678 282.505 197.613 282.673 197.482 282.804C197.352 282.935 197.184 283 196.978 283H193.758ZM214.435 283C214.248 283 214.08 282.935 213.931 282.804C213.8 282.673 213.735 282.505 213.735 282.3V272.108H209.479C209.292 272.108 209.124 272.043 208.975 271.912C208.844 271.781 208.779 271.613 208.779 271.408V269.14C208.779 268.935 208.844 268.767 208.975 268.636C209.124 268.505 209.292 268.44 209.479 268.44H222.639C222.825 268.44 222.984 268.505 223.115 268.636C223.264 268.767 223.339 268.935 223.339 269.14V271.408C223.339 271.613 223.264 271.781 223.115 271.912C222.984 272.043 222.825 272.108 222.639 272.108H218.383V282.3C218.383 282.505 218.317 282.673 218.187 282.804C218.056 282.935 217.888 283 217.683 283H214.435ZM232.267 283.28C230.699 283.28 229.373 283.028 228.291 282.524C227.227 282.02 226.405 281.301 225.827 280.368C225.267 279.416 224.949 278.287 224.875 276.98C224.856 276.607 224.847 276.187 224.847 275.72C224.847 275.235 224.856 274.815 224.875 274.46C224.949 273.135 225.285 272.005 225.883 271.072C226.48 270.139 227.311 269.42 228.375 268.916C229.457 268.412 230.755 268.16 232.267 268.16C233.797 268.16 235.095 268.412 236.159 268.916C237.241 269.42 238.081 270.139 238.679 271.072C239.276 272.005 239.612 273.135 239.687 274.46C239.705 274.815 239.715 275.235 239.715 275.72C239.715 276.187 239.705 276.607 239.687 276.98C239.612 278.287 239.285 279.416 238.707 280.368C238.147 281.301 237.325 282.02 236.243 282.524C235.179 283.028 233.853 283.28 232.267 283.28ZM232.267 279.864C233.107 279.864 233.713 279.612 234.087 279.108C234.479 278.604 234.703 277.848 234.759 276.84C234.777 276.56 234.787 276.187 234.787 275.72C234.787 275.253 234.777 274.88 234.759 274.6C234.703 273.611 234.479 272.864 234.087 272.36C233.713 271.837 233.107 271.576 232.267 271.576C231.445 271.576 230.839 271.837 230.447 272.36C230.055 272.864 229.84 273.611 229.803 274.6C229.784 274.88 229.775 275.253 229.775 275.72C229.775 276.187 229.784 276.56 229.803 276.84C229.84 277.848 230.055 278.604 230.447 279.108C230.839 279.612 231.445 279.864 232.267 279.864ZM32.2697 316.28C30.963 316.28 29.8803 316.14 29.0217 315.86C28.1817 315.58 27.5097 315.216 27.0057 314.768C26.5017 314.32 26.1377 313.853 25.9137 313.368C25.7083 312.864 25.5777 312.416 25.5217 312.024C25.503 311.875 25.5497 311.753 25.6617 311.66C25.7737 311.567 25.895 311.52 26.0257 311.52H29.2737C29.479 311.52 29.6283 311.557 29.7217 311.632C29.8337 311.707 29.927 311.809 30.0017 311.94C30.1697 312.313 30.4403 312.584 30.8137 312.752C31.2057 312.92 31.7097 313.004 32.3257 313.004C32.755 313.004 33.1283 312.948 33.4457 312.836C33.7817 312.724 34.0337 312.556 34.2017 312.332C34.3697 312.108 34.4537 311.828 34.4537 311.492C34.4537 311.025 34.3137 310.671 34.0337 310.428C33.7537 310.167 33.2683 310.036 32.5777 310.036H31.0097C30.8417 310.036 30.7017 309.98 30.5897 309.868C30.4777 309.737 30.4217 309.588 30.4217 309.42V307.824C30.4217 307.656 30.4777 307.516 30.5897 307.404C30.7017 307.273 30.8417 307.208 31.0097 307.208H32.5217C33.1003 307.208 33.5203 307.105 33.7817 306.9C34.043 306.695 34.1737 306.377 34.1737 305.948C34.1737 305.687 34.1083 305.444 33.9777 305.22C33.847 304.996 33.6417 304.819 33.3617 304.688C33.0817 304.539 32.699 304.464 32.2137 304.464C31.523 304.464 31.0283 304.567 30.7297 304.772C30.4497 304.959 30.2163 305.257 30.0297 305.668C29.955 305.799 29.8617 305.901 29.7497 305.976C29.6563 306.051 29.507 306.088 29.3017 306.088H26.1657C26.0163 306.088 25.895 306.041 25.8017 305.948C25.7083 305.855 25.6617 305.733 25.6617 305.584C25.7177 305.099 25.8577 304.604 26.0817 304.1C26.3243 303.577 26.6977 303.092 27.2017 302.644C27.7057 302.196 28.3683 301.841 29.1897 301.58C30.011 301.3 31.0377 301.16 32.2697 301.16C33.8563 301.16 35.1163 301.356 36.0497 301.748C37.0017 302.121 37.683 302.625 38.0937 303.26C38.5043 303.876 38.7097 304.557 38.7097 305.304C38.7097 305.939 38.579 306.517 38.3177 307.04C38.0563 307.563 37.5897 307.992 36.9177 308.328C37.7577 308.645 38.3363 309.131 38.6537 309.784C38.971 310.437 39.1297 311.137 39.1297 311.884C39.1297 312.78 38.8497 313.555 38.2897 314.208C37.7483 314.861 36.9643 315.375 35.9377 315.748C34.911 316.103 33.6883 316.28 32.2697 316.28ZM46.147 316.28C45.139 316.28 44.2336 316.093 43.431 315.72C42.647 315.328 42.0216 314.805 41.555 314.152C41.0883 313.499 40.855 312.761 40.855 311.94C40.855 310.615 41.3963 309.569 42.479 308.804C43.5616 308.02 44.999 307.488 46.791 307.208L50.291 306.676V306.284C50.291 305.612 50.151 305.099 49.871 304.744C49.591 304.389 49.0776 304.212 48.331 304.212C47.8083 304.212 47.379 304.315 47.043 304.52C46.7256 304.725 46.4736 305.005 46.287 305.36C46.119 305.603 45.8856 305.724 45.587 305.724H42.451C42.2456 305.724 42.087 305.668 41.975 305.556C41.863 305.425 41.8163 305.276 41.835 305.108C41.835 304.772 41.9563 304.389 42.199 303.96C42.4603 303.512 42.8523 303.073 43.375 302.644C43.8976 302.215 44.5696 301.86 45.391 301.58C46.2123 301.3 47.2016 301.16 48.359 301.16C49.5723 301.16 50.6083 301.3 51.467 301.58C52.3256 301.86 53.0163 302.252 53.539 302.756C54.0803 303.26 54.4816 303.857 54.743 304.548C55.0043 305.22 55.135 305.967 55.135 306.788V315.3C55.135 315.505 55.0603 315.673 54.911 315.804C54.7803 315.935 54.6216 316 54.435 316H51.187C50.9816 316 50.8136 315.935 50.683 315.804C50.5523 315.673 50.487 315.505 50.487 315.3V314.32C50.2443 314.675 49.9176 315.001 49.507 315.3C49.0963 315.599 48.611 315.832 48.051 316C47.5096 316.187 46.875 316.28 46.147 316.28ZM47.463 313.088C48.0043 313.088 48.4896 312.976 48.919 312.752C49.367 312.509 49.7123 312.145 49.955 311.66C50.2163 311.156 50.347 310.531 50.347 309.784V309.392L47.967 309.812C47.0896 309.961 46.4456 310.195 46.035 310.512C45.643 310.811 45.447 311.165 45.447 311.576C45.447 311.893 45.5403 312.164 45.727 312.388C45.9136 312.612 46.1563 312.789 46.455 312.92C46.7536 313.032 47.0896 313.088 47.463 313.088ZM57.7906 316C57.6039 316 57.4546 315.953 57.3426 315.86C57.2306 315.748 57.1746 315.608 57.1746 315.44C57.1746 315.328 57.2119 315.207 57.2866 315.076L61.7946 308.468L57.9306 302.392C57.9119 302.336 57.8839 302.271 57.8466 302.196C57.8092 302.121 57.7906 302.056 57.7906 302C57.7906 301.832 57.8466 301.701 57.9586 301.608C58.0892 301.496 58.2386 301.44 58.4066 301.44H61.9906C62.2146 301.44 62.3826 301.496 62.4946 301.608C62.6252 301.701 62.7186 301.795 62.7746 301.888L65.8266 306.788H67.1146V302.14C67.1146 301.935 67.1799 301.767 67.3106 301.636C67.4599 301.505 67.6279 301.44 67.8146 301.44H71.0626C71.2679 301.44 71.4359 301.505 71.5666 301.636C71.6972 301.767 71.7626 301.935 71.7626 302.14V306.788H73.0506L76.1026 301.888C76.1586 301.795 76.2519 301.701 76.3826 301.608C76.5132 301.496 76.6812 301.44 76.8866 301.44H80.4706C80.6386 301.44 80.7786 301.496 80.8906 301.608C81.0212 301.701 81.0866 301.832 81.0866 302C81.0866 302.056 81.0679 302.121 81.0306 302.196C81.0119 302.271 80.9839 302.336 80.9466 302.392L77.0826 308.468L81.5906 315.076C81.6652 315.188 81.7026 315.309 81.7026 315.44C81.7026 315.608 81.6466 315.748 81.5346 315.86C81.4226 315.953 81.2732 316 81.0866 316H77.1386C76.8959 316 76.7092 315.944 76.5786 315.832C76.4666 315.72 76.3826 315.627 76.3266 315.552L72.9946 310.456H71.7626V315.3C71.7626 315.505 71.6972 315.673 71.5666 315.804C71.4359 315.935 71.2679 316 71.0626 316H67.8146C67.6279 316 67.4599 315.935 67.3106 315.804C67.1799 315.673 67.1146 315.505 67.1146 315.3V310.456H65.8826L62.5506 315.552C62.5132 315.627 62.4292 315.72 62.2986 315.832C62.1679 315.944 61.9812 316 61.7386 316H57.7906ZM83.3843 316C83.1977 316 83.0483 315.953 82.9363 315.86C82.8243 315.748 82.7683 315.608 82.7683 315.44C82.7683 315.328 82.8057 315.207 82.8803 315.076L87.3883 308.468L83.5243 302.392C83.5057 302.336 83.4777 302.271 83.4403 302.196C83.403 302.121 83.3843 302.056 83.3843 302C83.3843 301.832 83.4403 301.701 83.5523 301.608C83.683 301.496 83.8323 301.44 84.0003 301.44H87.5843C87.8083 301.44 87.9763 301.496 88.0883 301.608C88.219 301.701 88.3123 301.795 88.3683 301.888L91.4203 306.788H92.7083V302.14C92.7083 301.935 92.7737 301.767 92.9043 301.636C93.0537 301.505 93.2217 301.44 93.4083 301.44H96.6563C96.8617 301.44 97.0297 301.505 97.1603 301.636C97.291 301.767 97.3563 301.935 97.3563 302.14V306.788H98.6443L101.696 301.888C101.752 301.795 101.846 301.701 101.976 301.608C102.107 301.496 102.275 301.44 102.48 301.44H106.064C106.232 301.44 106.372 301.496 106.484 301.608C106.615 301.701 106.68 301.832 106.68 302C106.68 302.056 106.662 302.121 106.624 302.196C106.606 302.271 106.578 302.336 106.54 302.392L102.676 308.468L107.184 315.076C107.259 315.188 107.296 315.309 107.296 315.44C107.296 315.608 107.24 315.748 107.128 315.86C107.016 315.953 106.867 316 106.68 316H102.732C102.49 316 102.303 315.944 102.172 315.832C102.06 315.72 101.976 315.627 101.92 315.552L98.5883 310.456H97.3563V315.3C97.3563 315.505 97.291 315.673 97.1603 315.804C97.0297 315.935 96.8617 316 96.6563 316H93.4083C93.2217 316 93.0537 315.935 92.9043 315.804C92.7737 315.673 92.7083 315.505 92.7083 315.3V310.456H91.4763L88.1443 315.552C88.107 315.627 88.023 315.72 87.8923 315.832C87.7617 315.944 87.575 316 87.3323 316H83.3843ZM116.202 316.28C113.999 316.28 112.245 315.683 110.938 314.488C109.631 313.293 108.95 311.52 108.894 309.168C108.894 309.037 108.894 308.869 108.894 308.664C108.894 308.459 108.894 308.3 108.894 308.188C108.95 306.713 109.277 305.453 109.874 304.408C110.49 303.344 111.33 302.541 112.394 302C113.477 301.44 114.737 301.16 116.174 301.16C117.817 301.16 119.17 301.487 120.234 302.14C121.317 302.793 122.129 303.68 122.67 304.8C123.211 305.92 123.482 307.199 123.482 308.636V309.308C123.482 309.513 123.407 309.681 123.258 309.812C123.127 309.943 122.969 310.008 122.782 310.008H113.822C113.822 310.027 113.822 310.055 113.822 310.092C113.822 310.129 113.822 310.167 113.822 310.204C113.841 310.745 113.934 311.24 114.102 311.688C114.27 312.136 114.531 312.491 114.886 312.752C115.241 313.013 115.67 313.144 116.174 313.144C116.547 313.144 116.855 313.088 117.098 312.976C117.359 312.845 117.574 312.705 117.742 312.556C117.91 312.388 118.041 312.248 118.134 312.136C118.302 311.949 118.433 311.837 118.526 311.8C118.638 311.744 118.806 311.716 119.03 311.716H122.502C122.689 311.716 122.838 311.772 122.95 311.884C123.081 311.977 123.137 312.117 123.118 312.304C123.099 312.621 122.941 313.004 122.642 313.452C122.343 313.9 121.905 314.348 121.326 314.796C120.766 315.225 120.057 315.58 119.198 315.86C118.339 316.14 117.341 316.28 116.202 316.28ZM113.822 307.236H118.554V307.18C118.554 306.583 118.461 306.06 118.274 305.612C118.106 305.164 117.835 304.819 117.462 304.576C117.107 304.333 116.678 304.212 116.174 304.212C115.67 304.212 115.241 304.333 114.886 304.576C114.55 304.819 114.289 305.164 114.102 305.612C113.915 306.06 113.822 306.583 113.822 307.18V307.236ZM130.503 316C130.316 316 130.148 315.935 129.999 315.804C129.868 315.673 129.803 315.505 129.803 315.3V305.108H125.547C125.36 305.108 125.192 305.043 125.043 304.912C124.912 304.781 124.847 304.613 124.847 304.408V302.14C124.847 301.935 124.912 301.767 125.043 301.636C125.192 301.505 125.36 301.44 125.547 301.44H138.707C138.894 301.44 139.052 301.505 139.183 301.636C139.332 301.767 139.407 301.935 139.407 302.14V304.408C139.407 304.613 139.332 304.781 139.183 304.912C139.052 305.043 138.894 305.108 138.707 305.108H134.451V315.3C134.451 315.505 134.386 315.673 134.255 315.804C134.124 315.935 133.956 316 133.751 316H130.503ZM148.108 316C147.903 316 147.735 315.935 147.604 315.804C147.473 315.673 147.408 315.505 147.408 315.3V302.14C147.408 301.935 147.473 301.767 147.604 301.636C147.735 301.505 147.903 301.44 148.108 301.44H154.66C156.881 301.44 158.496 301.813 159.504 302.56C160.531 303.307 161.044 304.315 161.044 305.584C161.044 306.293 160.904 306.872 160.624 307.32C160.344 307.768 159.971 308.141 159.504 308.44C160.12 308.757 160.605 309.196 160.96 309.756C161.315 310.316 161.492 310.96 161.492 311.688C161.492 313.032 160.969 314.087 159.924 314.852C158.879 315.617 157.255 316 155.052 316H148.108ZM151.944 313.004H154.8C155.379 313.004 155.845 312.901 156.2 312.696C156.555 312.472 156.732 312.117 156.732 311.632C156.732 311.147 156.564 310.801 156.228 310.596C155.911 310.372 155.435 310.26 154.8 310.26H151.944V313.004ZM151.944 307.124H154.744C155.323 307.124 155.78 307.012 156.116 306.788C156.471 306.545 156.648 306.191 156.648 305.724C156.648 305.239 156.471 304.903 156.116 304.716C155.78 304.529 155.323 304.436 154.744 304.436H151.944V307.124ZM174.745 316C174.559 316 174.391 315.935 174.241 315.804C174.111 315.673 174.045 315.505 174.045 315.3V305.108H169.789C169.603 305.108 169.435 305.043 169.285 304.912C169.155 304.781 169.089 304.613 169.089 304.408V302.14C169.089 301.935 169.155 301.767 169.285 301.636C169.435 301.505 169.603 301.44 169.789 301.44H182.949C183.136 301.44 183.295 301.505 183.425 301.636C183.575 301.767 183.649 301.935 183.649 302.14V304.408C183.649 304.613 183.575 304.781 183.425 304.912C183.295 305.043 183.136 305.108 182.949 305.108H178.693V315.3C178.693 315.505 178.628 315.673 178.497 315.804C178.367 315.935 178.199 316 177.993 316H174.745ZM192.409 316.28C190.206 316.28 188.452 315.683 187.145 314.488C185.838 313.293 185.157 311.52 185.101 309.168C185.101 309.037 185.101 308.869 185.101 308.664C185.101 308.459 185.101 308.3 185.101 308.188C185.157 306.713 185.484 305.453 186.081 304.408C186.697 303.344 187.537 302.541 188.601 302C189.684 301.44 190.944 301.16 192.381 301.16C194.024 301.16 195.377 301.487 196.441 302.14C197.524 302.793 198.336 303.68 198.877 304.8C199.418 305.92 199.689 307.199 199.689 308.636V309.308C199.689 309.513 199.614 309.681 199.465 309.812C199.334 309.943 199.176 310.008 198.989 310.008H190.029C190.029 310.027 190.029 310.055 190.029 310.092C190.029 310.129 190.029 310.167 190.029 310.204C190.048 310.745 190.141 311.24 190.309 311.688C190.477 312.136 190.738 312.491 191.093 312.752C191.448 313.013 191.877 313.144 192.381 313.144C192.754 313.144 193.062 313.088 193.305 312.976C193.566 312.845 193.781 312.705 193.949 312.556C194.117 312.388 194.248 312.248 194.341 312.136C194.509 311.949 194.64 311.837 194.733 311.8C194.845 311.744 195.013 311.716 195.237 311.716H198.709C198.896 311.716 199.045 311.772 199.157 311.884C199.288 311.977 199.344 312.117 199.325 312.304C199.306 312.621 199.148 313.004 198.849 313.452C198.55 313.9 198.112 314.348 197.533 314.796C196.973 315.225 196.264 315.58 195.405 315.86C194.546 316.14 193.548 316.28 192.409 316.28ZM190.029 307.236H194.761V307.18C194.761 306.583 194.668 306.06 194.481 305.612C194.313 305.164 194.042 304.819 193.669 304.576C193.314 304.333 192.885 304.212 192.381 304.212C191.877 304.212 191.448 304.333 191.093 304.576C190.757 304.819 190.496 305.164 190.309 305.612C190.122 306.06 190.029 306.583 190.029 307.18V307.236ZM209.314 316.28C207.615 316.28 206.234 316.009 205.17 315.468C204.106 314.927 203.313 314.096 202.79 312.976C202.267 311.856 201.969 310.447 201.894 308.748C201.875 308.188 201.866 307.619 201.866 307.04C201.866 306.461 201.875 305.901 201.894 305.36C201.931 303.792 202.099 302.476 202.398 301.412C202.697 300.329 203.145 299.433 203.742 298.724C204.339 297.996 205.105 297.389 206.038 296.904C206.99 296.419 208.129 295.999 209.454 295.644C210.779 295.271 212.31 294.888 214.046 294.496C214.233 294.459 214.41 294.496 214.578 294.608C214.765 294.701 214.867 294.851 214.886 295.056L215.362 297.632C215.399 297.837 215.362 298.015 215.25 298.164C215.157 298.313 215.017 298.407 214.83 298.444C213.393 298.724 212.17 298.985 211.162 299.228C210.173 299.452 209.351 299.723 208.698 300.04C208.063 300.339 207.578 300.731 207.242 301.216C206.906 301.683 206.673 302.299 206.542 303.064C206.43 303.811 206.383 304.763 206.402 305.92L205.73 305.136C205.879 304.651 206.169 304.212 206.598 303.82C207.046 303.428 207.578 303.111 208.194 302.868C208.81 302.625 209.473 302.504 210.182 302.504C211.563 302.504 212.721 302.747 213.654 303.232C214.606 303.699 215.334 304.371 215.838 305.248C216.342 306.107 216.631 307.152 216.706 308.384C216.762 309.093 216.762 309.765 216.706 310.4C216.631 311.613 216.305 312.659 215.726 313.536C215.166 314.413 214.345 315.095 213.262 315.58C212.198 316.047 210.882 316.28 209.314 316.28ZM209.314 313.2C210.135 313.2 210.742 312.957 211.134 312.472C211.526 311.968 211.741 311.24 211.778 310.288C211.797 310.064 211.806 309.775 211.806 309.42C211.806 309.065 211.797 308.757 211.778 308.496C211.741 307.563 211.526 306.853 211.134 306.368C210.761 305.864 210.21 305.612 209.482 305.612C208.623 305.612 207.97 305.864 207.522 306.368C207.093 306.853 206.859 307.563 206.822 308.496C206.803 308.757 206.794 309.065 206.794 309.42C206.794 309.775 206.803 310.064 206.822 310.288C206.859 311.24 207.074 311.968 207.466 312.472C207.877 312.957 208.493 313.2 209.314 313.2ZM226.233 316.28C224.031 316.28 222.276 315.683 220.969 314.488C219.663 313.293 218.981 311.52 218.925 309.168C218.925 309.037 218.925 308.869 218.925 308.664C218.925 308.459 218.925 308.3 218.925 308.188C218.981 306.713 219.308 305.453 219.905 304.408C220.521 303.344 221.361 302.541 222.425 302C223.508 301.44 224.768 301.16 226.205 301.16C227.848 301.16 229.201 301.487 230.265 302.14C231.348 302.793 232.16 303.68 232.701 304.8C233.243 305.92 233.513 307.199 233.513 308.636V309.308C233.513 309.513 233.439 309.681 233.289 309.812C233.159 309.943 233 310.008 232.813 310.008H223.853C223.853 310.027 223.853 310.055 223.853 310.092C223.853 310.129 223.853 310.167 223.853 310.204C223.872 310.745 223.965 311.24 224.133 311.688C224.301 312.136 224.563 312.491 224.917 312.752C225.272 313.013 225.701 313.144 226.205 313.144C226.579 313.144 226.887 313.088 227.129 312.976C227.391 312.845 227.605 312.705 227.773 312.556C227.941 312.388 228.072 312.248 228.165 312.136C228.333 311.949 228.464 311.837 228.557 311.8C228.669 311.744 228.837 311.716 229.061 311.716H232.533C232.72 311.716 232.869 311.772 232.981 311.884C233.112 311.977 233.168 312.117 233.149 312.304C233.131 312.621 232.972 313.004 232.673 313.452C232.375 313.9 231.936 314.348 231.357 314.796C230.797 315.225 230.088 315.58 229.229 315.86C228.371 316.14 227.372 316.28 226.233 316.28ZM223.853 307.236H228.585V307.18C228.585 306.583 228.492 306.06 228.305 305.612C228.137 305.164 227.867 304.819 227.493 304.576C227.139 304.333 226.709 304.212 226.205 304.212C225.701 304.212 225.272 304.333 224.917 304.576C224.581 304.819 224.32 305.164 224.133 305.612C223.947 306.06 223.853 306.583 223.853 307.18V307.236ZM85.2439 349C85.0573 349 84.8986 348.935 84.7679 348.804C84.6373 348.673 84.5719 348.515 84.5719 348.328V335.14C84.5719 334.935 84.6373 334.767 84.7679 334.636C84.8986 334.505 85.0666 334.44 85.2719 334.44H88.5759C88.7626 334.44 88.9213 334.505 89.0519 334.636C89.2013 334.767 89.2759 334.935 89.2759 335.14V345.36L88.0159 344.744L94.9319 334.888C95.0253 334.757 95.1373 334.655 95.2679 334.58C95.3986 334.487 95.5479 334.44 95.7159 334.44H98.7119C98.8986 334.44 99.0573 334.505 99.1879 334.636C99.3186 334.767 99.3839 334.925 99.3839 335.112V348.3C99.3839 348.505 99.3186 348.673 99.1879 348.804C99.0573 348.935 98.8893 349 98.6839 349H95.3799C95.1746 349 95.0066 348.935 94.8759 348.804C94.7453 348.673 94.6799 348.505 94.6799 348.3V338.388L95.9679 338.64L88.9959 348.552C88.9213 348.683 88.8186 348.795 88.6879 348.888C88.5573 348.963 88.3986 349 88.2119 349H85.2439ZM109.119 349.28C107.738 349.28 106.515 349.028 105.451 348.524C104.387 348.02 103.538 347.292 102.903 346.34C102.287 345.369 101.951 344.212 101.895 342.868C101.877 342.569 101.867 342.196 101.867 341.748C101.867 341.281 101.877 340.899 101.895 340.6C101.951 339.237 102.287 338.08 102.903 337.128C103.519 336.157 104.359 335.42 105.423 334.916C106.506 334.412 107.738 334.16 109.119 334.16C110.407 334.16 111.509 334.347 112.423 334.72C113.338 335.075 114.085 335.523 114.663 336.064C115.242 336.605 115.671 337.165 115.951 337.744C116.25 338.304 116.409 338.799 116.427 339.228C116.446 339.415 116.381 339.583 116.231 339.732C116.082 339.863 115.914 339.928 115.727 339.928H112.171C111.966 339.928 111.807 339.881 111.695 339.788C111.583 339.695 111.481 339.555 111.387 339.368C111.163 338.789 110.874 338.379 110.519 338.136C110.183 337.893 109.745 337.772 109.203 337.772C108.457 337.772 107.878 338.015 107.467 338.5C107.075 338.985 106.861 339.732 106.823 340.74C106.805 341.487 106.805 342.149 106.823 342.728C106.861 343.755 107.075 344.501 107.467 344.968C107.878 345.435 108.457 345.668 109.203 345.668C109.782 345.668 110.239 345.547 110.575 345.304C110.911 345.061 111.182 344.651 111.387 344.072C111.481 343.885 111.583 343.745 111.695 343.652C111.807 343.559 111.966 343.512 112.171 343.512H115.727C115.914 343.512 116.082 343.587 116.231 343.736C116.381 343.867 116.446 344.025 116.427 344.212C116.409 344.529 116.315 344.903 116.147 345.332C115.979 345.743 115.718 346.181 115.363 346.648C115.009 347.115 114.542 347.553 113.963 347.964C113.403 348.356 112.722 348.673 111.919 348.916C111.117 349.159 110.183 349.28 109.119 349.28ZM119.643 349C119.438 349 119.27 348.935 119.139 348.804C119.008 348.673 118.943 348.505 118.943 348.3V335.14C118.943 334.935 119.008 334.767 119.139 334.636C119.27 334.505 119.438 334.44 119.643 334.44H122.863C123.068 334.44 123.236 334.505 123.367 334.636C123.498 334.767 123.563 334.935 123.563 335.14V339.788H125.075L128.127 334.888C128.183 334.795 128.276 334.701 128.407 334.608C128.538 334.496 128.706 334.44 128.911 334.44H132.495C132.663 334.44 132.803 334.496 132.915 334.608C133.046 334.701 133.111 334.832 133.111 335C133.111 335.056 133.092 335.121 133.055 335.196C133.036 335.271 133.008 335.336 132.971 335.392L129.135 341.496L133.615 348.076C133.69 348.188 133.727 348.309 133.727 348.44C133.727 348.608 133.671 348.748 133.559 348.86C133.447 348.953 133.298 349 133.111 349H129.163C128.958 349 128.79 348.963 128.659 348.888C128.547 348.795 128.444 348.683 128.351 348.552L125.019 343.456H123.563V348.3C123.563 348.505 123.498 348.673 123.367 348.804C123.236 348.935 123.068 349 122.863 349H119.643ZM136.623 354.32C136.418 354.32 136.25 354.255 136.119 354.124C135.989 353.993 135.923 353.825 135.923 353.62V335.14C135.923 334.935 135.989 334.767 136.119 334.636C136.25 334.505 136.418 334.44 136.623 334.44H139.787C139.974 334.44 140.133 334.505 140.263 334.636C140.413 334.767 140.487 334.935 140.487 335.14V336.176C140.917 335.597 141.486 335.121 142.195 334.748C142.905 334.356 143.782 334.16 144.827 334.16C145.761 334.16 146.582 334.309 147.291 334.608C148.001 334.888 148.607 335.308 149.111 335.868C149.615 336.428 150.007 337.109 150.287 337.912C150.586 338.715 150.754 339.639 150.791 340.684C150.81 341.057 150.819 341.403 150.819 341.72C150.819 342.037 150.81 342.383 150.791 342.756C150.754 343.764 150.595 344.669 150.315 345.472C150.035 346.275 149.643 346.956 149.139 347.516C148.635 348.076 148.019 348.515 147.291 348.832C146.582 349.131 145.761 349.28 144.827 349.28C143.913 349.28 143.11 349.121 142.419 348.804C141.747 348.468 141.187 348.001 140.739 347.404V353.62C140.739 353.825 140.674 353.993 140.543 354.124C140.413 354.255 140.245 354.32 140.039 354.32H136.623ZM143.315 345.528C143.95 345.528 144.445 345.397 144.799 345.136C145.154 344.875 145.406 344.52 145.555 344.072C145.723 343.624 145.826 343.129 145.863 342.588C145.901 342.009 145.901 341.431 145.863 340.852C145.826 340.311 145.723 339.816 145.555 339.368C145.406 338.92 145.154 338.565 144.799 338.304C144.445 338.043 143.95 337.912 143.315 337.912C142.699 337.912 142.205 338.052 141.831 338.332C141.458 338.593 141.187 338.939 141.019 339.368C140.851 339.797 140.758 340.264 140.739 340.768C140.721 341.123 140.711 341.468 140.711 341.804C140.711 342.14 140.721 342.495 140.739 342.868C140.758 343.335 140.861 343.773 141.047 344.184C141.234 344.576 141.514 344.903 141.887 345.164C142.261 345.407 142.737 345.528 143.315 345.528ZM154.386 354.348C154.181 354.348 154.003 354.273 153.854 354.124C153.723 353.993 153.658 353.835 153.658 353.648V351.38C153.658 351.175 153.723 351.007 153.854 350.876C154.003 350.745 154.181 350.68 154.386 350.68H155.338C155.693 350.68 155.982 350.615 156.206 350.484C156.43 350.353 156.626 350.139 156.794 349.84C156.981 349.56 157.177 349.168 157.382 348.664L162.982 335.028C163.038 334.86 163.131 334.72 163.262 334.608C163.393 334.496 163.579 334.44 163.822 334.44H166.818C166.986 334.44 167.126 334.505 167.238 334.636C167.369 334.748 167.434 334.879 167.434 335.028C167.434 335.065 167.425 335.121 167.406 335.196C167.406 335.252 167.387 335.317 167.35 335.392L162.03 348.216C161.657 349.131 161.265 349.961 160.854 350.708C160.462 351.455 160.033 352.099 159.566 352.64C159.099 353.2 158.549 353.62 157.914 353.9C157.298 354.199 156.579 354.348 155.758 354.348H154.386ZM157.69 348.692L151.95 335.392C151.894 335.261 151.866 335.149 151.866 335.056C151.903 334.888 151.978 334.748 152.09 334.636C152.202 334.505 152.351 334.44 152.538 334.44H155.674C155.917 334.44 156.094 334.505 156.206 334.636C156.337 334.748 156.43 334.879 156.486 335.028L160.49 345.276L157.69 348.692ZM170.396 342.812C170.19 342.812 170.022 342.747 169.892 342.616C169.761 342.467 169.696 342.299 169.696 342.112V330.1C169.696 329.895 169.761 329.727 169.892 329.596C170.022 329.465 170.19 329.4 170.396 329.4H173.616C173.802 329.4 173.961 329.465 174.092 329.596C174.241 329.727 174.316 329.895 174.316 330.1V342.112C174.316 342.299 174.241 342.467 174.092 342.616C173.961 342.747 173.802 342.812 173.616 342.812H170.396ZM170.284 349C170.078 349 169.91 348.935 169.78 348.804C169.649 348.673 169.584 348.505 169.584 348.3V344.856C169.584 344.651 169.649 344.483 169.78 344.352C169.91 344.203 170.078 344.128 170.284 344.128H173.728C173.914 344.128 174.073 344.203 174.204 344.352C174.353 344.483 174.428 344.651 174.428 344.856V348.3C174.428 348.505 174.353 348.673 174.204 348.804C174.073 348.935 173.914 349 173.728 349H170.284Z" fill="white"/>
</g>
<g filter="url(#filter2_d_797_1231)">
<path d="M83.5345 225C83.6263 226.306 84.4705 229.924 86.0122 231.715C87.554 233.505 90.4171 233.766 91.7937 233.953C90.3254 234.233 87.3337 235.128 86.0122 236.471C84.7146 237.79 83.7532 241.015 83.5452 242.544C83.5421 242.572 83.5385 242.599 83.5345 242.626C83.5378 242.599 83.5414 242.572 83.5452 242.544C83.6825 241.285 82.8756 238.441 80.5061 236.471C78.0834 234.456 76.0095 233.953 75 233.953C76.193 233.766 78.9644 233.058 80.5061 231.715C82.0478 230.372 83.1674 226.679 83.5345 225Z" fill="#FAC748"/>
</g>
<g filter="url(#filter3_d_797_1231)">
<path d="M208.885 145C209.142 148.63 211.505 158.689 215.82 163.667C220.134 168.644 228.148 169.37 232 169.889C227.891 170.667 219.518 173.156 215.82 176.889C212.188 180.555 209.497 189.521 208.915 193.771C208.907 193.85 208.897 193.926 208.885 194C208.894 193.925 208.904 193.849 208.915 193.771C209.3 190.273 207.041 182.366 200.41 176.889C193.63 171.289 187.825 169.889 185 169.889C188.339 169.37 196.095 167.4 200.41 163.667C204.725 159.933 207.858 149.667 208.885 145Z" fill="#FAC748"/>
</g>
<g filter="url(#filter4_d_797_1231)">
<path d="M183.213 368C183.355 370 184.662 375.543 187.049 378.286C189.436 381.029 193.869 381.429 196 381.714C193.727 382.143 189.095 383.514 187.049 385.571C185.04 387.592 183.552 392.532 183.23 394.874C183.225 394.917 183.219 394.959 183.213 395C183.218 394.959 183.224 394.917 183.23 394.874C183.442 392.946 182.193 388.589 178.525 385.571C174.774 382.486 171.563 381.714 170 381.714C171.847 381.429 176.138 380.343 178.525 378.286C180.911 376.229 182.645 370.571 183.213 368Z" fill="#FAC748"/>
</g>
<defs>
<filter id="filter0_d_797_1231" x="243.268" y="212.311" width="170.208" height="176.411" filterUnits="userSpaceOnUse" color-interpolation-filters="sRGB">
<feFlood flood-opacity="0" result="BackgroundImageFix"/>
<feColorMatrix in="SourceAlpha" type="matrix" values="0 0 0 0 0 0 0 0 0 0 0 0 0 0 0 0 0 0 127 0" result="hardAlpha"/>
<feOffset/>
<feGaussianBlur stdDeviation="5"/>
<feComposite in2="hardAlpha" operator="out"/>
<feColorMatrix type="matrix" values="0 0 0 0 1 0 0 0 0 1 0 0 0 0 1 0 0 0 1 0"/>
<feBlend mode="normal" in2="BackgroundImageFix" result="effect1_dropShadow_797_1231"/>
<feBlend mode="normal" in="SourceGraphic" in2="effect1_dropShadow_797_1231" result="shape"/>
</filter>
<filter id="filter1_d_797_1231" x="5.14355" y="247" width="249.571" height="122.348" filterUnits="userSpaceOnUse" color-interpolation-filters="sRGB">
<feFlood flood-opacity="0" result="BackgroundImageFix"/>
<feColorMatrix in="SourceAlpha" type="matrix" values="0 0 0 0 0 0 0 0 0 0 0 0 0 0 0 0 0 0 127 0" result="hardAlpha"/>
<feOffset/>
<feGaussianBlur stdDeviation="7.5"/>
<feComposite in2="hardAlpha" operator="out"/>
<feColorMatrix type="matrix" values="0 0 0 0 0.980392 0 0 0 0 0.780392 0 0 0 0 0.282353 0 0 0 1 0"/>
<feBlend mode="normal" in2="BackgroundImageFix" result="effect1_dropShadow_797_1231"/>
<feBlend mode="normal" in="SourceGraphic" in2="effect1_dropShadow_797_1231" result="shape"/>
</filter>
<filter id="filter2_d_797_1231" x="65" y="215" width="36.7935" height="37.626" filterUnits="userSpaceOnUse" color-interpolation-filters="sRGB">
<feFlood flood-opacity="0" result="BackgroundImageFix"/>
<feColorMatrix in="SourceAlpha" type="matrix" values="0 0 0 0 0 0 0 0 0 0 0 0 0 0 0 0 0 0 127 0" result="hardAlpha"/>
<feOffset/>
<feGaussianBlur stdDeviation="5"/>
<feComposite in2="hardAlpha" operator="out"/>
<feColorMatrix type="matrix" values="0 0 0 0 1 0 0 0 0 1 0 0 0 0 1 0 0 0 1 0"/>
<feBlend mode="normal" in2="BackgroundImageFix" result="effect1_dropShadow_797_1231"/>
<feBlend mode="normal" in="SourceGraphic" in2="effect1_dropShadow_797_1231" result="shape"/>
</filter>
<filter id="filter3_d_797_1231" x="175" y="135" width="67" height="69" filterUnits="userSpaceOnUse" color-interpolation-filters="sRGB">
<feFlood flood-opacity="0" result="BackgroundImageFix"/>
<feColorMatrix in="SourceAlpha" type="matrix" values="0 0 0 0 0 0 0 0 0 0 0 0 0 0 0 0 0 0 127 0" result="hardAlpha"/>
<feOffset/>
<feGaussianBlur stdDeviation="5"/>
<feComposite in2="hardAlpha" operator="out"/>
<feColorMatrix type="matrix" values="0 0 0 0 1 0 0 0 0 1 0 0 0 0 1 0 0 0 1 0"/>
<feBlend mode="normal" in2="BackgroundImageFix" result="effect1_dropShadow_797_1231"/>
<feBlend mode="normal" in="SourceGraphic" in2="effect1_dropShadow_797_1231" result="shape"/>
</filter>
<filter id="filter4_d_797_1231" x="160" y="358" width="46" height="47" filterUnits="userSpaceOnUse" color-interpolation-filters="sRGB">
<feFlood flood-opacity="0" result="BackgroundImageFix"/>
<feColorMatrix in="SourceAlpha" type="matrix" values="0 0 0 0 0 0 0 0 0 0 0 0 0 0 0 0 0 0 127 0" result="hardAlpha"/>
<feOffset/>
<feGaussianBlur stdDeviation="5"/>
<feComposite in2="hardAlpha" operator="out"/>
<feColorMatrix type="matrix" values="0 0 0 0 1 0 0 0 0 1 0 0 0 0 1 0 0 0 1 0"/>
<feBlend mode="normal" in2="BackgroundImageFix" result="effect1_dropShadow_797_1231"/>
<feBlend mode="normal" in="SourceGraphic" in2="effect1_dropShadow_797_1231" result="shape"/>
</filter>
</defs>
</svg>
