<svg width="19" height="20" viewBox="0 0 19 20" fill="none" xmlns="http://www.w3.org/2000/svg">
<path d="M17.8666 9.2081L10.2083 16.8664C9.27011 17.8046 7.99763 18.3317 6.67081 18.3317C5.34399 18.3317 4.07151 17.8046 3.13331 16.8664C2.19511 15.9282 1.66803 14.6558 1.66803 13.3289C1.66803 12.0021 2.19511 10.7296 3.13331 9.79144L10.7916 2.1331C11.4171 1.50763 12.2654 1.15625 13.15 1.15625C14.0345 1.15625 14.8828 1.50763 15.5083 2.1331C16.1338 2.75857 16.4852 3.60689 16.4852 4.49144C16.4852 5.37598 16.1338 6.2243 15.5083 6.84977L7.84164 14.5081C7.52891 14.8208 7.10475 14.9965 6.66248 14.9965C6.2202 14.9965 5.79604 14.8208 5.48331 14.5081C5.17058 14.1954 4.99488 13.7712 4.99488 13.3289C4.99488 12.8867 5.17058 12.4625 5.48331 12.1498L12.5583 5.0831" stroke="black" stroke-width="2" stroke-linecap="round" stroke-linejoin="round"/>
</svg>
